<?xml version="1.0" encoding="UTF-8" standalone="no"?>
<svg
   xmlns:dc="http://purl.org/dc/elements/1.1/"
   xmlns:cc="http://creativecommons.org/ns#"
   xmlns:rdf="http://www.w3.org/1999/02/22-rdf-syntax-ns#"
   xmlns:svg="http://www.w3.org/2000/svg"
   xmlns="http://www.w3.org/2000/svg"
   xmlns:sodipodi="http://sodipodi.sourceforge.net/DTD/sodipodi-0.dtd"
   xmlns:inkscape="http://www.inkscape.org/namespaces/inkscape"
   style="fill-opacity:1; color-rendering:auto; color-interpolation:auto; text-rendering:auto; stroke:black; stroke-linecap:square; stroke-miterlimit:10; shape-rendering:auto; stroke-opacity:1; fill:black; stroke-dasharray:none; font-weight:normal; stroke-width:1; font-family:'Dialog'; font-style:normal; stroke-linejoin:miter; font-size:12px; stroke-dashoffset:0; image-rendering:auto;"
   width="966"
   height="425"
   version="1.1"
   id="svg8824"
   sodipodi:docname="sigmavary.svg"
   inkscape:version="0.92.3 (2405546, 2018-03-11)">
  <metadata
     id="metadata8828">
    <rdf:RDF>
      <cc:Work
         rdf:about="">
        <dc:format>image/svg+xml</dc:format>
        <dc:type
           rdf:resource="http://purl.org/dc/dcmitype/StillImage" />
      </cc:Work>
    </rdf:RDF>
  </metadata>
  <sodipodi:namedview
     pagecolor="#ffffff"
     bordercolor="#666666"
     borderopacity="1"
     objecttolerance="10"
     gridtolerance="10"
     guidetolerance="10"
     inkscape:pageopacity="0"
     inkscape:pageshadow="2"
     inkscape:window-width="1366"
     inkscape:window-height="705"
     id="namedview8826"
     showgrid="false"
     inkscape:zoom="0.83154584"
     inkscape:cx="454.1842"
     inkscape:cy="156.99951"
     inkscape:window-x="-8"
     inkscape:window-y="-8"
     inkscape:window-maximized="1"
     inkscape:current-layer="svg8824" />
  <!--Generated by the Batik Graphics2D SVG Generator-->
  <defs
     id="genericDefs">
    <defs
       id="defs1">
      <clipPath
         id="clipPath1"
         clipPathUnits="userSpaceOnUse">
        <path
           inkscape:connector-curvature="0"
           id="path8284"
           d="M 0,0 H 966 V 425 H 0 Z" />
      </clipPath>
    </defs>
  </defs>
  <g
     id="g8290"
     style="fill:#ffffff;stroke:#ffffff" />
  <g
     id="g8296"
     style="color-interpolation:sRGB;fill:#ffffff;stroke:#ffffff;color-rendering:optimizeSpeed;image-rendering:optimizeSpeed;shape-rendering:crispEdges;text-rendering:optimizeSpeed" />
  <g
     id="g8314"
     style="color-interpolation:linearRGB;fill:#262626;stroke:#262626;stroke-width:0.66670001;stroke-linejoin:round;color-rendering:optimizeQuality;image-rendering:optimizeQuality;text-rendering:geometricPrecision"
     transform="translate(-0.14276835,43.850127)">
    <line
       id="line8298"
       y1="177"
       x2="326"
       x1="126"
       style="fill:none"
       y2="177" />
    <line
       id="line8300"
       y1="32"
       x2="326"
       x1="126"
       style="fill:none"
       y2="32" />
    <line
       id="line8302"
       y1="177"
       x2="126"
       x1="126"
       style="fill:none"
       y2="175" />
    <line
       id="line8304"
       y1="177"
       x2="226"
       x1="226"
       style="fill:none"
       y2="175" />
    <line
       id="line8306"
       y1="177"
       x2="326"
       x1="326"
       style="fill:none"
       y2="175" />
    <line
       id="line8308"
       y1="32"
       x2="126"
       x1="126"
       style="fill:none"
       y2="34" />
    <line
       id="line8310"
       y1="32"
       x2="226"
       x1="226"
       style="fill:none"
       y2="34" />
    <line
       id="line8312"
       y1="32"
       x2="326"
       x1="326"
       style="fill:none"
       y2="34" />
  </g>
  <g
     id="g8318"
     style="font-family:SansSerif;color-interpolation:linearRGB;fill:#262626;stroke:#262626;color-rendering:optimizeQuality;image-rendering:optimizeQuality;text-rendering:geometricPrecision"
     transform="translate(126,180.7333)" />
  <g
     id="g8322"
     style="font-family:SansSerif;color-interpolation:linearRGB;fill:#262626;stroke:#262626;color-rendering:optimizeQuality;image-rendering:optimizeQuality;text-rendering:geometricPrecision"
     transform="translate(226,180.7333)" />
  <g
     id="g8326"
     style="font-family:SansSerif;color-interpolation:linearRGB;fill:#262626;stroke:#262626;color-rendering:optimizeQuality;image-rendering:optimizeQuality;text-rendering:geometricPrecision"
     transform="translate(326,180.7333)" />
  <g
     id="g8352"
     style="color-interpolation:linearRGB;fill:#262626;stroke:#262626;stroke-width:0.66670001;stroke-linejoin:round;color-rendering:optimizeQuality;image-rendering:optimizeQuality;text-rendering:geometricPrecision"
     transform="translate(-0.14276835,43.850127)">
    <line
       id="line8328"
       y1="177"
       x2="126"
       x1="126"
       style="fill:none"
       y2="32" />
    <line
       id="line8330"
       y1="177"
       x2="326"
       x1="326"
       style="fill:none"
       y2="32" />
    <line
       id="line8332"
       y1="177"
       x2="128"
       x1="126"
       style="fill:none"
       y2="177" />
    <line
       id="line8334"
       y1="144.0455"
       x2="128"
       x1="126"
       style="fill:none"
       y2="144.0455" />
    <line
       id="line8336"
       y1="111.0909"
       x2="128"
       x1="126"
       style="fill:none"
       y2="111.0909" />
    <line
       id="line8338"
       y1="78.136398"
       x2="128"
       x1="126"
       style="fill:none"
       y2="78.136398" />
    <line
       id="line8340"
       y1="45.181801"
       x2="128"
       x1="126"
       style="fill:none"
       y2="45.181801" />
    <line
       id="line8342"
       y1="177"
       x2="324"
       x1="326"
       style="fill:none"
       y2="177" />
    <line
       id="line8344"
       y1="144.0455"
       x2="324"
       x1="326"
       style="fill:none"
       y2="144.0455" />
    <line
       id="line8346"
       y1="111.0909"
       x2="324"
       x1="326"
       style="fill:none"
       y2="111.0909" />
    <line
       id="line8348"
       y1="78.136398"
       x2="324"
       x1="326"
       style="fill:none"
       y2="78.136398" />
    <line
       id="line8350"
       y1="45.181801"
       x2="324"
       x1="326"
       style="fill:none"
       y2="45.181801" />
  </g>
  <g
     id="g8356"
     style="font-family:SansSerif;color-interpolation:linearRGB;fill:#262626;stroke:#262626;color-rendering:optimizeQuality;image-rendering:optimizeQuality;text-rendering:geometricPrecision"
     transform="translate(122.12393,220.85013)">
    <path
       inkscape:connector-curvature="0"
       id="path8354"
       d="M -30.625,2.4219 V 1.3594 h 3.25 v 1.0625 z m 9.668,1.5625 V 5 h -5.6875 q 0,-0.375 0.125,-0.7344 0.2187,-0.5781 0.6953,-1.1406 0.4765,-0.5625 1.3828,-1.2969 1.4062,-1.1562 1.8984,-1.8281 0.4922,-0.6719 0.4922,-1.2656 0,-0.625 -0.4531,-1.0547 -0.4531,-0.4297 -1.1719,-0.4297 -0.7656,0 -1.2187,0.4531 -0.4532,0.4531 -0.4688,1.2657 l -1.0781,-0.1094 q 0.1094,-1.2188 0.8359,-1.8516 0.7266,-0.6328 1.961,-0.6328 1.2343,0 1.9531,0.6875 0.7187,0.6875 0.7187,1.7031 0,0.5156 -0.2109,1.0078 -0.2109,0.4922 -0.7031,1.0469 -0.4922,0.5547 -1.6172,1.5078 -0.9531,0.7969 -1.2266,1.086 -0.2734,0.289 -0.4453,0.5703 z m 1.1269,-3.2188 q 0,-1.5312 0.3125,-2.4609 0.3125,-0.9297 0.9297,-1.4297 0.6172,-0.5 1.5547,-0.5 0.6875,0 1.2109,0.2812 0.5235,0.2813 0.8672,0.8047 0.3438,0.5235 0.5313,1.2735 0.1875,0.75 0.1875,2.0312 0,1.5156 -0.3047,2.4375 -0.3047,0.9219 -0.9219,1.4297 -0.6172,0.5078 -1.5703,0.5078 -1.2344,0 -1.9531,-0.8906 -0.8438,-1.0625 -0.8438,-3.4844 z m 1.0781,0 q 0,2.1094 0.5,2.8125 0.5,0.7031 1.2188,0.7031 0.7344,0 1.2266,-0.7031 0.4921,-0.7031 0.4921,-2.8125 0,-2.125 -0.4921,-2.8203 -0.4922,-0.6953 -1.2422,-0.6953 -0.7188,0 -1.1563,0.6094 -0.5469,0.7812 -0.5469,2.9062 z m 5.5958,0 q 0,-1.5312 0.3124,-2.4609 0.3126,-0.9297 0.9297,-1.4297 0.6172,-0.5 1.5547,-0.5 0.6875,0 1.211,0.2812 0.5234,0.2813 0.8672,0.8047 0.3437,0.5235 0.5312,1.2735 0.1875,0.75 0.1875,2.0312 0,1.5156 -0.3047,2.4375 -0.3047,0.9219 -0.9219,1.4297 -0.6171,0.5078 -1.5703,0.5078 -1.2344,0 -1.9531,-0.8906 -0.8437,-1.0625 -0.8437,-3.4844 z m 1.0781,0 q 0,2.1094 0.5,2.8125 0.5,0.7031 1.2187,0.7031 0.7344,0 1.2266,-0.7031 0.4922,-0.7031 0.4922,-2.8125 0,-2.125 -0.4922,-2.8203 Q -9.625,-2.75 -10.375,-2.75 q -0.7188,0 -1.1562,0.6094 -0.5469,0.7812 -0.5469,2.9062 z m 5.5957,0 q 0,-1.5312 0.3125,-2.4609 0.3125,-0.9297 0.9297,-1.4297 0.6172,-0.5 1.5547,-0.5 0.6875,0 1.2109,0.2812 0.5234,0.2813 0.8672,0.8047 0.3437,0.5235 0.5312,1.2735 0.1875,0.75 0.1875,2.0312 0,1.5156 -0.3047,2.4375 -0.3046,0.9219 -0.9218,1.4297 -0.6172,0.5078 -1.5703,0.5078 -1.2344,0 -1.9532,-0.8906 -0.8437,-1.0625 -0.8437,-3.4844 z m 1.0781,0 q 0,2.1094 0.5,2.8125 0.5,0.7031 1.2188,0.7031 0.7343,0 1.2265,-0.7031 0.4922,-0.7031 0.4922,-2.8125 0,-2.125 -0.4922,-2.8203 -0.4922,-0.6953 -1.2422,-0.6953 -0.7187,0 -1.1562,0.6094 -0.5469,0.7812 -0.5469,2.9062 z"
       style="stroke:none" />
  </g>
  <g
     id="g8360"
     style="font-family:SansSerif;color-interpolation:linearRGB;fill:#262626;stroke:#262626;color-rendering:optimizeQuality;image-rendering:optimizeQuality;text-rendering:geometricPrecision"
     transform="translate(122.12393,187.89563)">
    <path
       inkscape:connector-curvature="0"
       id="path8358"
       d="M -30.625,2.4219 V 1.3594 h 3.25 V 2.4219 Z M -22.5352,5 h -1.0468 v -6.7188 q -0.3907,0.3594 -1.0078,0.7266 -0.6172,0.3672 -1.1016,0.5391 v -1.0157 q 0.875,-0.4218 1.5391,-1.0078 0.664,-0.5859 0.9453,-1.1484 h 0.6718 z m 2.7051,-2.25 1.1094,-0.0938 q 0.125,0.8126 0.5703,1.2188 0.4453,0.4062 1.0859,0.4062 0.75,0 1.2813,-0.5781 0.5312,-0.5781 0.5312,-1.5156 0,-0.9063 -0.5078,-1.4297 -0.5078,-0.5234 -1.3359,-0.5234 -0.5,0 -0.9141,0.2344 -0.414,0.2343 -0.6484,0.5937 l -0.9844,-0.125 0.8281,-4.4063 h 4.2813 v 1 h -3.4375 l -0.4531,2.3126 q 0.7656,-0.5469 1.6093,-0.5469 1.125,0 1.8985,0.7812 0.7734,0.7813 0.7734,2.0157 0,1.1562 -0.6719,2.0156 -0.8281,1.0312 -2.25,1.0312 -1.1718,0 -1.914,-0.6562 -0.7422,-0.6563 -0.8516,-1.7344 z m 6.6739,-1.9844 q 0,-1.5312 0.3124,-2.4609 0.3126,-0.9297 0.9297,-1.4297 0.6172,-0.5 1.5547,-0.5 0.6875,0 1.211,0.2812 0.5234,0.2813 0.8672,0.8047 0.3437,0.5235 0.5312,1.2735 0.1875,0.75 0.1875,2.0312 0,1.5156 -0.3047,2.4375 -0.3047,0.9219 -0.9219,1.4297 -0.6171,0.5078 -1.5703,0.5078 -1.2344,0 -1.9531,-0.8906 -0.8437,-1.0625 -0.8437,-3.4844 z m 1.0781,0 q 0,2.1094 0.5,2.8125 0.5,0.7031 1.2187,0.7031 0.7344,0 1.2266,-0.7031 0.4922,-0.7031 0.4922,-2.8125 0,-2.125 -0.4922,-2.8203 Q -9.625,-2.75 -10.375,-2.75 q -0.7188,0 -1.1562,0.6094 -0.5469,0.7812 -0.5469,2.9062 z m 5.5957,0 q 0,-1.5312 0.3125,-2.4609 0.3125,-0.9297 0.9297,-1.4297 0.6172,-0.5 1.5547,-0.5 0.6875,0 1.2109,0.2812 0.5234,0.2813 0.8672,0.8047 0.3437,0.5235 0.5312,1.2735 0.1875,0.75 0.1875,2.0312 0,1.5156 -0.3047,2.4375 -0.3046,0.9219 -0.9218,1.4297 -0.6172,0.5078 -1.5703,0.5078 -1.2344,0 -1.9532,-0.8906 -0.8437,-1.0625 -0.8437,-3.4844 z m 1.0781,0 q 0,2.1094 0.5,2.8125 0.5,0.7031 1.2188,0.7031 0.7343,0 1.2265,-0.7031 0.4922,-0.7031 0.4922,-2.8125 0,-2.125 -0.4922,-2.8203 -0.4922,-0.6953 -1.2422,-0.6953 -0.7187,0 -1.1562,0.6094 -0.5469,0.7812 -0.5469,2.9062 z"
       style="stroke:none" />
  </g>
  <g
     id="g8364"
     style="font-family:SansSerif;color-interpolation:linearRGB;fill:#262626;stroke:#262626;color-rendering:optimizeQuality;image-rendering:optimizeQuality;text-rendering:geometricPrecision"
     transform="translate(122.12393,154.94103)">
    <path
       inkscape:connector-curvature="0"
       id="path8362"
       d="M -30.625,2.4219 V 1.3594 h 3.25 V 2.4219 Z M -22.5352,5 h -1.0468 v -6.7188 q -0.3907,0.3594 -1.0078,0.7266 -0.6172,0.3672 -1.1016,0.5391 v -1.0157 q 0.875,-0.4218 1.5391,-1.0078 0.664,-0.5859 0.9453,-1.1484 h 0.6718 z m 2.7051,-4.2344 q 0,-1.5312 0.3125,-2.4609 0.3125,-0.9297 0.9297,-1.4297 0.6172,-0.5 1.5547,-0.5 0.6875,0 1.2109,0.2812 0.5235,0.2813 0.8672,0.8047 0.3438,0.5235 0.5313,1.2735 0.1875,0.75 0.1875,2.0312 0,1.5156 -0.3047,2.4375 -0.3047,0.9219 -0.9219,1.4297 -0.6172,0.5078 -1.5703,0.5078 -1.2344,0 -1.9531,-0.8906 -0.8438,-1.0625 -0.8438,-3.4844 z m 1.0781,0 q 0,2.1094 0.5,2.8125 0.5,0.7031 1.2188,0.7031 0.7344,0 1.2266,-0.7031 0.4921,-0.7031 0.4921,-2.8125 0,-2.125 -0.4921,-2.8203 -0.4922,-0.6953 -1.2422,-0.6953 -0.7188,0 -1.1563,0.6094 -0.5469,0.7812 -0.5469,2.9062 z m 5.5958,0 q 0,-1.5312 0.3124,-2.4609 0.3126,-0.9297 0.9297,-1.4297 0.6172,-0.5 1.5547,-0.5 0.6875,0 1.211,0.2812 0.5234,0.2813 0.8672,0.8047 0.3437,0.5235 0.5312,1.2735 0.1875,0.75 0.1875,2.0312 0,1.5156 -0.3047,2.4375 -0.3047,0.9219 -0.9219,1.4297 -0.6171,0.5078 -1.5703,0.5078 -1.2344,0 -1.9531,-0.8906 -0.8437,-1.0625 -0.8437,-3.4844 z m 1.0781,0 q 0,2.1094 0.5,2.8125 0.5,0.7031 1.2187,0.7031 0.7344,0 1.2266,-0.7031 0.4922,-0.7031 0.4922,-2.8125 0,-2.125 -0.4922,-2.8203 Q -9.625,-2.75 -10.375,-2.75 q -0.7188,0 -1.1562,0.6094 -0.5469,0.7812 -0.5469,2.9062 z m 5.5957,0 q 0,-1.5312 0.3125,-2.4609 0.3125,-0.9297 0.9297,-1.4297 0.6172,-0.5 1.5547,-0.5 0.6875,0 1.2109,0.2812 0.5234,0.2813 0.8672,0.8047 0.3437,0.5235 0.5312,1.2735 0.1875,0.75 0.1875,2.0312 0,1.5156 -0.3047,2.4375 -0.3046,0.9219 -0.9218,1.4297 -0.6172,0.5078 -1.5703,0.5078 -1.2344,0 -1.9532,-0.8906 -0.8437,-1.0625 -0.8437,-3.4844 z m 1.0781,0 q 0,2.1094 0.5,2.8125 0.5,0.7031 1.2188,0.7031 0.7343,0 1.2265,-0.7031 0.4922,-0.7031 0.4922,-2.8125 0,-2.125 -0.4922,-2.8203 -0.4922,-0.6953 -1.2422,-0.6953 -0.7187,0 -1.1562,0.6094 -0.5469,0.7812 -0.5469,2.9062 z"
       style="stroke:none" />
  </g>
  <g
     id="g8368"
     style="font-family:SansSerif;color-interpolation:linearRGB;fill:#262626;stroke:#262626;color-rendering:optimizeQuality;image-rendering:optimizeQuality;text-rendering:geometricPrecision"
     transform="translate(122.12393,121.98653)">
    <path
       inkscape:connector-curvature="0"
       id="path8366"
       d="M -24.625,2.4219 V 1.3594 h 3.25 v 1.0625 z m 4.1211,0.3281 1.1094,-0.0938 q 0.125,0.8126 0.5703,1.2188 0.4453,0.4062 1.0859,0.4062 0.75,0 1.2813,-0.5781 0.5312,-0.5781 0.5312,-1.5156 0,-0.9063 -0.5078,-1.4297 -0.5078,-0.5234 -1.3359,-0.5234 -0.5,0 -0.9141,0.2344 -0.4141,0.2343 -0.6484,0.5937 l -0.9844,-0.125 0.8281,-4.4063 h 4.2813 v 1 h -3.4375 l -0.4532,2.3126 q 0.7657,-0.5469 1.6094,-0.5469 1.125,0 1.8985,0.7812 0.7734,0.7813 0.7734,2.0157 0,1.1562 -0.6719,2.0156 -0.8281,1.0312 -2.25,1.0312 -1.1719,0 -1.914,-0.6562 -0.7422,-0.6563 -0.8516,-1.7344 z m 6.6738,-1.9844 q 0,-1.5312 0.3125,-2.4609 0.3125,-0.9297 0.9297,-1.4297 0.6172,-0.5 1.5547,-0.5 0.6875,0 1.2109,0.2812 0.5235,0.2813 0.8672,0.8047 0.3438,0.5235 0.5313,1.2735 0.1875,0.75 0.1875,2.0312 0,1.5156 -0.3047,2.4375 -0.3047,0.9219 -0.9219,1.4297 -0.6172,0.5078 -1.5703,0.5078 -1.2344,0 -1.9531,-0.8906 -0.8438,-1.0625 -0.8438,-3.4844 z m 1.0781,0 q 0,2.1094 0.5,2.8125 0.5,0.7031 1.2188,0.7031 0.7344,0 1.2266,-0.7031 0.4921,-0.7031 0.4921,-2.8125 0,-2.125 -0.4921,-2.8203 -0.4922,-0.6953 -1.2422,-0.6953 -0.7188,0 -1.1563,0.6094 -0.5469,0.7812 -0.5469,2.9062 z m 5.5958,0 q 0,-1.5312 0.3124,-2.4609 0.3126,-0.9297 0.9297,-1.4297 0.6172,-0.5 1.5547,-0.5 0.6875,0 1.211,0.2812 0.5234,0.2813 0.8672,0.8047 0.3437,0.5235 0.5312,1.2735 0.1875,0.75 0.1875,2.0312 0,1.5156 -0.3047,2.4375 -0.3047,0.9219 -0.9219,1.4297 -0.6171,0.5078 -1.5703,0.5078 -1.2344,0 -1.9531,-0.8906 -0.8437,-1.0625 -0.8437,-3.4844 z m 1.0781,0 q 0,2.1094 0.5,2.8125 0.5,0.7031 1.2187,0.7031 0.7344,0 1.2266,-0.7031 0.4922,-0.7031 0.4922,-2.8125 0,-2.125 -0.4922,-2.8203 Q -3.625,-2.75 -4.375,-2.75 q -0.7188,0 -1.1562,0.6094 -0.5469,0.7812 -0.5469,2.9062 z"
       style="stroke:none" />
  </g>
  <g
     id="g8372"
     style="font-family:SansSerif;color-interpolation:linearRGB;fill:#262626;stroke:#262626;color-rendering:optimizeQuality;image-rendering:optimizeQuality;text-rendering:geometricPrecision"
     transform="translate(122.12393,89.03193)">
    <path
       inkscape:connector-curvature="0"
       id="path8370"
       d="m -6.5,0.7656 q 0,-1.5312 0.3125,-2.4609 0.3125,-0.9297 0.9297,-1.4297 0.6172,-0.5 1.5547,-0.5 0.6875,0 1.2109,0.2812 0.5234,0.2813 0.8672,0.8047 0.3438,0.5235 0.5312,1.2735 0.1876,0.75 0.1876,2.0312 0,1.5156 -0.3047,2.4375 Q -1.5156,4.125 -2.1328,4.6328 -2.75,5.1406 -3.7031,5.1406 -4.9375,5.1406 -5.6562,4.25 -6.5,3.1875 -6.5,0.7656 Z m 1.0781,0 q 0,2.1094 0.5,2.8125 0.5,0.7031 1.2188,0.7031 0.7343,0 1.2265,-0.7031 0.4922,-0.7031 0.4922,-2.8125 0,-2.125 -0.4922,-2.8203 -0.4922,-0.6953 -1.2422,-0.6953 -0.7187,0 -1.1562,0.6094 -0.5469,0.7812 -0.5469,2.9062 z"
       style="stroke:none" />
  </g>
  <g
     id="g8376"
     style="color-interpolation:linearRGB;stroke-width:2.66669989;stroke-linecap:butt;stroke-linejoin:bevel;stroke-miterlimit:1;stroke-dasharray:8, 8;color-rendering:optimizeQuality;image-rendering:optimizeQuality;text-rendering:geometricPrecision"
     transform="translate(-0.14276835,43.850127)">
    <path
       inkscape:connector-curvature="0"
       id="path8374"
       style="fill:none;fill-rule:evenodd"
       d="m 126,81.8031 2,34.1301 2,8.751 2,5.8454 2,0.6799 2,1.363 2,1.5734 2,2.9279 2,1.5472 2,1.0746 2,0.2034 2,2.3204 2,1.1942 2,0.6276 2,0.0867 2,0.4033 2,0.2367 2,0.3036 2,0.3272 h 2 l 2,0.1311 2,0.2493 2,0.3062 h 2 l 2,0.1389 2,0.1384 h 2 2 l 2,0.003 2,0.0667 h 2 2 l 2,0.1694 2,0.0116 h 2 l 2,0.1191 2,0.0153 2,0.1697 h 2 l 2,0.0253 h 2 l 2,0.0588 h 2 2 2 2 2 2 2 2 l 2,0.0123 h 2 l 2,0.0243 h 2 2 2 2 2 2 2 2 2 l 2,0.002 h 2 2 2 2 2 2 2 l 2,0.001 h 2 2 2 2 2 2 2 2 2 2 2 2 2 2 2 2 2 2 l 2,0.001 h 2 2 2 l 2,2e-4 h 2 2 2 2 2 2 2" />
  </g>
  <g
     id="g8380"
     style="color-interpolation:linearRGB;stroke-width:0.66670001;stroke-linecap:butt;stroke-linejoin:round;color-rendering:optimizeQuality;image-rendering:optimizeQuality;text-rendering:geometricPrecision"
     transform="translate(-0.14276835,43.850127)">
    <path
       inkscape:connector-curvature="0"
       id="path8378"
       style="fill:none;fill-rule:evenodd"
       d="m 128,115.9332 2,8.751 2,5.8454 2,0.6799 2,1.363 2,1.5734 2,2.9279 2,1.5472 2,1.0746 2,0.2034 2,2.3204 2,1.1942 2,0.6276 2,0.0867 2,0.4033 2,0.2367 2,0.3036 2,0.3272 2,-0.11 2,0.2411 2,0.2493 2,0.3062 2,-0.0389 2,0.1778 2,0.1384 2,-0.0651 2,-0.1107 2,0.1787 2,0.0667 2,-0.2694 2,0.229 2,0.2098 2,0.0116 2,-0.003 2,0.1221 2,0.0153 2,0.1697 2,-0.0258 2,0.0511 2,-0.0127 2,0.0715 2,-0.0443 2,0.0117 2,4e-4 2,-0.0235 2,0.0426 2,-0.008 2,-0.0246 2,-0.0438 2,0.1018 2,-0.0271 2,0.0514 2,-0.055 2,0.0354 2,0.007 2,-0.007 2,-0.009 2,-0.0156 2,0.0289 2,-0.0197 2,0.0333 2,0.004 2,-0.006 2,-0.01 2,-0.001 2,0.0115 2,0.004 2,-0.008 2,9e-4 2,0.0101 2,-0.001 2,-0.002 2,-0.004 2,0.006 2,-0.0177 2,-5e-4 2,0.0186 2,-0.008 2,-0.002 2,6e-4 2,0.002 2,-5e-4 2,0.007 2,-8e-4 2,5e-4 2,5e-4 2,-0.004 2,0.002 2,0.004 2,-2e-4 2,-0.007 2,-0.007 2,0.0144 2,-0.001 2,-0.008 2,10e-4 2,-10e-4 2,0.009 2,-0.008 2,0.004" />
  </g>
  <g
     id="g8384"
     style="color-interpolation:sRGB;fill:#ffffff;stroke:#ffffff;color-rendering:optimizeSpeed;image-rendering:optimizeSpeed;shape-rendering:crispEdges;text-rendering:optimizeSpeed" />
  <g
     id="g8402"
     style="color-interpolation:linearRGB;fill:#262626;stroke:#262626;stroke-width:0.66670001;stroke-linejoin:round;color-rendering:optimizeQuality;image-rendering:optimizeQuality;text-rendering:geometricPrecision"
     transform="translate(-49.094958,43.850127)">
    <line
       id="line8386"
       y1="177"
       x2="597"
       x1="397"
       style="fill:none"
       y2="177" />
    <line
       id="line8388"
       y1="32"
       x2="597"
       x1="397"
       style="fill:none"
       y2="32" />
    <line
       id="line8390"
       y1="177"
       x2="397"
       x1="397"
       style="fill:none"
       y2="175" />
    <line
       id="line8392"
       y1="177"
       x2="497"
       x1="497"
       style="fill:none"
       y2="175" />
    <line
       id="line8394"
       y1="177"
       x2="597"
       x1="597"
       style="fill:none"
       y2="175" />
    <line
       id="line8396"
       y1="32"
       x2="397"
       x1="397"
       style="fill:none"
       y2="34" />
    <line
       id="line8398"
       y1="32"
       x2="497"
       x1="497"
       style="fill:none"
       y2="34" />
    <line
       id="line8400"
       y1="32"
       x2="597"
       x1="597"
       style="fill:none"
       y2="34" />
  </g>
  <g
     id="g8406"
     style="font-family:SansSerif;color-interpolation:linearRGB;fill:#262626;stroke:#262626;color-rendering:optimizeQuality;image-rendering:optimizeQuality;text-rendering:geometricPrecision"
     transform="translate(397,180.7333)" />
  <g
     id="g8410"
     style="font-family:SansSerif;color-interpolation:linearRGB;fill:#262626;stroke:#262626;color-rendering:optimizeQuality;image-rendering:optimizeQuality;text-rendering:geometricPrecision"
     transform="translate(497,180.7333)" />
  <g
     id="g8414"
     style="font-family:SansSerif;color-interpolation:linearRGB;fill:#262626;stroke:#262626;color-rendering:optimizeQuality;image-rendering:optimizeQuality;text-rendering:geometricPrecision"
     transform="translate(597,180.7333)" />
  <g
     id="g8440"
     style="color-interpolation:linearRGB;fill:#262626;stroke:#262626;stroke-width:0.66670001;stroke-linejoin:round;color-rendering:optimizeQuality;image-rendering:optimizeQuality;text-rendering:geometricPrecision"
     transform="translate(-49.094958,43.850127)">
    <line
       id="line8416"
       y1="177"
       x2="397"
       x1="397"
       style="fill:none"
       y2="32" />
    <line
       id="line8418"
       y1="177"
       x2="597"
       x1="597"
       style="fill:none"
       y2="32" />
    <line
       id="line8420"
       y1="177"
       x2="399"
       x1="397"
       style="fill:none"
       y2="177" />
    <line
       id="line8422"
       y1="144.0455"
       x2="399"
       x1="397"
       style="fill:none"
       y2="144.0455" />
    <line
       id="line8424"
       y1="111.0909"
       x2="399"
       x1="397"
       style="fill:none"
       y2="111.0909" />
    <line
       id="line8426"
       y1="78.136398"
       x2="399"
       x1="397"
       style="fill:none"
       y2="78.136398" />
    <line
       id="line8428"
       y1="45.181801"
       x2="399"
       x1="397"
       style="fill:none"
       y2="45.181801" />
    <line
       id="line8430"
       y1="177"
       x2="595"
       x1="597"
       style="fill:none"
       y2="177" />
    <line
       id="line8432"
       y1="144.0455"
       x2="595"
       x1="597"
       style="fill:none"
       y2="144.0455" />
    <line
       id="line8434"
       y1="111.0909"
       x2="595"
       x1="597"
       style="fill:none"
       y2="111.0909" />
    <line
       id="line8436"
       y1="78.136398"
       x2="595"
       x1="597"
       style="fill:none"
       y2="78.136398" />
    <line
       id="line8438"
       y1="45.181801"
       x2="595"
       x1="597"
       style="fill:none"
       y2="45.181801" />
  </g>
  <g
     id="g8444"
     style="font-family:SansSerif;color-interpolation:linearRGB;fill:#262626;stroke:#262626;color-rendering:optimizeQuality;image-rendering:optimizeQuality;text-rendering:geometricPrecision"
     transform="translate(393.2667,177)" />
  <g
     id="g8448"
     style="font-family:SansSerif;color-interpolation:linearRGB;fill:#262626;stroke:#262626;color-rendering:optimizeQuality;image-rendering:optimizeQuality;text-rendering:geometricPrecision"
     transform="translate(393.2667,144.0455)" />
  <g
     id="g8452"
     style="font-family:SansSerif;color-interpolation:linearRGB;fill:#262626;stroke:#262626;color-rendering:optimizeQuality;image-rendering:optimizeQuality;text-rendering:geometricPrecision"
     transform="translate(393.2667,111.0909)" />
  <g
     id="g8456"
     style="font-family:SansSerif;color-interpolation:linearRGB;fill:#262626;stroke:#262626;color-rendering:optimizeQuality;image-rendering:optimizeQuality;text-rendering:geometricPrecision"
     transform="translate(393.2667,78.1364)" />
  <g
     id="g8460"
     style="font-family:SansSerif;color-interpolation:linearRGB;fill:#262626;stroke:#262626;color-rendering:optimizeQuality;image-rendering:optimizeQuality;text-rendering:geometricPrecision"
     transform="translate(393.2667,45.1818)" />
  <g
     id="g8464"
     style="color-interpolation:linearRGB;stroke-width:2.66669989;stroke-linecap:butt;stroke-linejoin:bevel;stroke-miterlimit:1;stroke-dasharray:8, 8;color-rendering:optimizeQuality;image-rendering:optimizeQuality;text-rendering:geometricPrecision"
     transform="translate(-49.094958,43.850127)">
    <path
       inkscape:connector-curvature="0"
       id="path8462"
       style="fill:none;fill-rule:evenodd"
       d="m 397,81.8031 2,41.8201 2,15.5759 2,7.8714 2,0.502 2,0.4484 2,1.1082 2,0.1694 h 2 l 2,1.1209 2,0.3893 h 2 2 l 2,0.636 h 2 2 2 2 2 2 2 l 2,0.2101 h 2 l 2,1.3654 h 2 2 2 l 2,1.563 2,0.6102 h 2 2 l 2,0.2984 h 2 2 2 2 l 2,0.327 h 2 2 2 2 2 l 2,0.4293 2,0.4372 2,0.219 h 2 l 2,0.4625 h 2 l 2,0.0413 2,0.174 2,0.4186 2,0.0537 2,0.0262 2,0.0151 2,0.1436 h 2 l 2,0.1588 h 2 2 l 2,0.3257 h 2 2 2 l 2,0.098 2,0.0672 2,0.3094 2,0.0181 2,0.2282 2,0.0875 h 2 l 2,0.1678 h 2 2 2 2 2 2 l 2,0.0329 2,0.0506 2,0.4652 h 2 l 2,0.101 h 2 2 2 2 l 2,0.1315 h 2 l 2,0.2223 h 2 l 2,0.0357 2,0.1189 h 2 2 2 2 l 2,0.0906 2,0.2657 h 2 2 2" />
  </g>
  <g
     id="g8468"
     style="color-interpolation:linearRGB;stroke-width:0.66670001;stroke-linecap:butt;stroke-linejoin:round;color-rendering:optimizeQuality;image-rendering:optimizeQuality;text-rendering:geometricPrecision"
     transform="translate(-49.094958,43.850127)">
    <path
       inkscape:connector-curvature="0"
       id="path8466"
       style="fill:none;fill-rule:evenodd"
       d="m 399,123.6232 2,15.5759 2,7.8714 2,0.502 2,0.4484 2,1.1082 2,0.1694 2,-0.3476 2,1.4685 2,0.3893 2,-1.2102 2,0.6889 2,1.1573 2,-1.8772 2,1.316 2,0.0861 2,-0.0173 2,0.478 2,-0.116 2,-0.7494 2,1.0899 2,-2.0185 2,3.3839 2,-2.5186 2,-0.3047 2,-0.182 2,4.5683 2,0.6102 2,-0.0179 2,-1.0102 2,1.3265 2,-0.74 2,0.5848 2,-0.0398 2,-0.1939 2,0.7159 2,-0.3051 2,-0.517 2,0.2726 2,-0.2844 2,0.3125 2,0.9507 2,0.4372 2,0.219 2,-0.6521 2,1.1146 2,-0.1054 2,0.1467 2,0.174 2,0.4186 2,0.0537 2,0.0262 2,0.0151 2,0.1436 2,-0.3009 2,0.4597 2,-0.3562 2,0.1317 2,0.5502 2,-0.2284 2,-0.1239 2,0.2805 2,0.1698 2,0.0672 2,0.3094 2,0.0181 2,0.2282 2,0.0875 2,-0.3856 2,0.5534 2,-1.1756 2,0.8917 2,-0.292 2,0.1525 2,0.3335 2,-0.0158 2,0.1386 2,0.0506 2,0.4652 2,-0.1539 2,0.2549 2,-0.26 2,-0.1719 2,-0.1183 2,0.4454 2,0.2363 2,-0.8672 2,1.0895 2,-0.2035 2,0.2392 2,0.1189 2,-0.7083 2,-0.5731 2,0.1929 2,0.6556 2,0.5235 2,0.2657 2,-0.9507 2,0.3181 2,0.0694" />
  </g>
  <g
     id="g8472"
     style="color-interpolation:sRGB;fill:#ffffff;stroke:#ffffff;color-rendering:optimizeSpeed;image-rendering:optimizeSpeed;shape-rendering:crispEdges;text-rendering:optimizeSpeed" />
  <g
     id="g8490"
     style="color-interpolation:linearRGB;fill:#262626;stroke:#262626;stroke-width:0.66670001;stroke-linejoin:round;color-rendering:optimizeQuality;image-rendering:optimizeQuality;text-rendering:geometricPrecision"
     transform="translate(-98.09496,43.850127)">
    <line
       id="line8474"
       y1="177"
       x2="868"
       x1="668"
       style="fill:none"
       y2="177" />
    <line
       id="line8476"
       y1="32"
       x2="868"
       x1="668"
       style="fill:none"
       y2="32" />
    <line
       id="line8478"
       y1="177"
       x2="668"
       x1="668"
       style="fill:none"
       y2="175" />
    <line
       id="line8480"
       y1="177"
       x2="768"
       x1="768"
       style="fill:none"
       y2="175" />
    <line
       id="line8482"
       y1="177"
       x2="868"
       x1="868"
       style="fill:none"
       y2="175" />
    <line
       id="line8484"
       y1="32"
       x2="668"
       x1="668"
       style="fill:none"
       y2="34" />
    <line
       id="line8486"
       y1="32"
       x2="768"
       x1="768"
       style="fill:none"
       y2="34" />
    <line
       id="line8488"
       y1="32"
       x2="868"
       x1="868"
       style="fill:none"
       y2="34" />
  </g>
  <g
     id="g8494"
     style="font-family:SansSerif;color-interpolation:linearRGB;fill:#262626;stroke:#262626;color-rendering:optimizeQuality;image-rendering:optimizeQuality;text-rendering:geometricPrecision"
     transform="translate(668,180.7333)" />
  <g
     id="g8498"
     style="font-family:SansSerif;color-interpolation:linearRGB;fill:#262626;stroke:#262626;color-rendering:optimizeQuality;image-rendering:optimizeQuality;text-rendering:geometricPrecision"
     transform="translate(768,180.7333)" />
  <g
     id="g8502"
     style="font-family:SansSerif;color-interpolation:linearRGB;fill:#262626;stroke:#262626;color-rendering:optimizeQuality;image-rendering:optimizeQuality;text-rendering:geometricPrecision"
     transform="translate(868,180.7333)" />
  <g
     id="g8528"
     style="color-interpolation:linearRGB;fill:#262626;stroke:#262626;stroke-width:0.66670001;stroke-linejoin:round;color-rendering:optimizeQuality;image-rendering:optimizeQuality;text-rendering:geometricPrecision"
     transform="translate(-98.09496,43.850127)">
    <line
       id="line8504"
       y1="177"
       x2="668"
       x1="668"
       style="fill:none"
       y2="32" />
    <line
       id="line8506"
       y1="177"
       x2="868"
       x1="868"
       style="fill:none"
       y2="32" />
    <line
       id="line8508"
       y1="177"
       x2="670"
       x1="668"
       style="fill:none"
       y2="177" />
    <line
       id="line8510"
       y1="144.0455"
       x2="670"
       x1="668"
       style="fill:none"
       y2="144.0455" />
    <line
       id="line8512"
       y1="111.0909"
       x2="670"
       x1="668"
       style="fill:none"
       y2="111.0909" />
    <line
       id="line8514"
       y1="78.136398"
       x2="670"
       x1="668"
       style="fill:none"
       y2="78.136398" />
    <line
       id="line8516"
       y1="45.181801"
       x2="670"
       x1="668"
       style="fill:none"
       y2="45.181801" />
    <line
       id="line8518"
       y1="177"
       x2="866"
       x1="868"
       style="fill:none"
       y2="177" />
    <line
       id="line8520"
       y1="144.0455"
       x2="866"
       x1="868"
       style="fill:none"
       y2="144.0455" />
    <line
       id="line8522"
       y1="111.0909"
       x2="866"
       x1="868"
       style="fill:none"
       y2="111.0909" />
    <line
       id="line8524"
       y1="78.136398"
       x2="866"
       x1="868"
       style="fill:none"
       y2="78.136398" />
    <line
       id="line8526"
       y1="45.181801"
       x2="866"
       x1="868"
       style="fill:none"
       y2="45.181801" />
  </g>
  <g
     id="g8532"
     style="font-family:SansSerif;color-interpolation:linearRGB;fill:#262626;stroke:#262626;color-rendering:optimizeQuality;image-rendering:optimizeQuality;text-rendering:geometricPrecision"
     transform="translate(664.2667,177)" />
  <g
     id="g8536"
     style="font-family:SansSerif;color-interpolation:linearRGB;fill:#262626;stroke:#262626;color-rendering:optimizeQuality;image-rendering:optimizeQuality;text-rendering:geometricPrecision"
     transform="translate(664.2667,144.0455)" />
  <g
     id="g8540"
     style="font-family:SansSerif;color-interpolation:linearRGB;fill:#262626;stroke:#262626;color-rendering:optimizeQuality;image-rendering:optimizeQuality;text-rendering:geometricPrecision"
     transform="translate(664.2667,111.0909)" />
  <g
     id="g8544"
     style="font-family:SansSerif;color-interpolation:linearRGB;fill:#262626;stroke:#262626;color-rendering:optimizeQuality;image-rendering:optimizeQuality;text-rendering:geometricPrecision"
     transform="translate(664.2667,78.1364)" />
  <g
     id="g8548"
     style="font-family:SansSerif;color-interpolation:linearRGB;fill:#262626;stroke:#262626;color-rendering:optimizeQuality;image-rendering:optimizeQuality;text-rendering:geometricPrecision"
     transform="translate(664.2667,45.1818)" />
  <g
     id="g8552"
     style="color-interpolation:linearRGB;stroke-width:2.66669989;stroke-linecap:butt;stroke-linejoin:bevel;stroke-miterlimit:1;stroke-dasharray:8, 8;color-rendering:optimizeQuality;image-rendering:optimizeQuality;text-rendering:geometricPrecision"
     transform="translate(-98.09496,43.850127)">
    <path
       inkscape:connector-curvature="0"
       id="path8550"
       style="fill:none;fill-rule:evenodd"
       d="m 668,81.8031 2,38.1982 2,2.2865 2,15.505 2,3.5233 2,1.7581 h 2 l 2,2.7471 h 2 2 2 2 2 l 2,1.0057 h 2 l 2,1.6971 h 2 2 2 2 2 2 2 2 2 2 2 2 2 2 2 2 2 2 2 2 2 2 2 2 2 2 2 2 2 2 2 2 2 2 2 2 2 l 2,0.0131 h 2 2 2 2 2 2 2 2 l 2,0.1511 2,0.1636 h 2 2 2 2 l 2,0.2727 h 2 2 2 2 2 2 2 2 2 2 2 2 2 2 2 2 2 2 2 2 l 2,0.0669 h 2 2 l 2,0.0293 h 2 2 2 2 2 2 2 2" />
  </g>
  <g
     id="g8556"
     style="color-interpolation:linearRGB;stroke-width:0.66670001;stroke-linecap:butt;stroke-linejoin:round;color-rendering:optimizeQuality;image-rendering:optimizeQuality;text-rendering:geometricPrecision"
     transform="translate(-98.09496,43.850127)">
    <path
       inkscape:connector-curvature="0"
       id="path8554"
       style="fill:none;fill-rule:evenodd"
       d="m 670,120.0013 2,2.2865 2,15.505 2,3.5233 2,1.7581 2,-2.5872 2,5.3343 2,-4.4614 2,1.4421 2,-5.2747 2,5.3858 2,1.8344 2,2.0795 2,-2.9654 2,4.6625 2,-3.3417 2,1.793 2,-0.6676 2,-0.4376 2,-0.5991 2,-0.0554 2,-1.5347 2,3.9566 2,-2.5643 2,3.131 2,-3.0108 2,2.4879 2,-1.7281 2,-2.3797 2,1.2608 2,-0.5194 2,-3.5315 2,6.7887 2,-1.8948 2,2.813 2,-1.7055 2,1.2316 2,-1.3497 2,-0.7419 2,0.1285 2,-4.9089 2,6.4141 2,-0.3548 2,-1.4878 2,2.1978 2,-0.0384 2,-3.0126 2,2.8061 2,0.8201 2,-0.4851 2,0.5192 2,-0.5907 2,0.6048 2,-0.6678 2,0.6264 2,-1.8491 2,1.0536 2,-0.7312 2,-1.0256 2,1.2895 2,-0.0888 2,1.5441 2,0.1636 2,-0.107 2,-0.2601 2,-0.2353 2,-0.6205 2,1.4956 2,-0.3764 2,-0.9349 2,0.8102 2,-0.2483 2,-0.0676 2,0.0973 2,-0.0739 2,-0.2348 2,0.7854 2,-1.0727 2,0.5242 2,0.2904 2,0.2916 2,-0.0278 2,-0.361 2,0.1107 2,0.1206 2,0.2376 2,-0.028 2,-0.0373 2,0.2616 2,-0.4788 2,-0.1934 2,0.7015 2,-0.1344 2,0.0519 2,-0.0215 2,0.0117 2,-0.0291 2,0.1102 2,0.007 2,-0.0661" />
  </g>
  <g
     id="g8560"
     style="color-interpolation:sRGB;fill:#ffffff;stroke:#ffffff;color-rendering:optimizeSpeed;image-rendering:optimizeSpeed;shape-rendering:crispEdges;text-rendering:optimizeSpeed" />
  <g
     id="g8578"
     style="color-interpolation:linearRGB;fill:#262626;stroke:#262626;stroke-width:0.66670001;stroke-linejoin:round;color-rendering:optimizeQuality;image-rendering:optimizeQuality;text-rendering:geometricPrecision">
    <line
       id="line8562"
       y1="378"
       x2="326"
       x1="126"
       style="fill:none"
       y2="378" />
    <line
       id="line8564"
       y1="233"
       x2="326"
       x1="126"
       style="fill:none"
       y2="233" />
    <line
       id="line8566"
       y1="378"
       x2="126"
       x1="126"
       style="fill:none"
       y2="376" />
    <line
       id="line8568"
       y1="378"
       x2="226"
       x1="226"
       style="fill:none"
       y2="376" />
    <line
       id="line8570"
       y1="378"
       x2="326"
       x1="326"
       style="fill:none"
       y2="376" />
    <line
       id="line8572"
       y1="233"
       x2="126"
       x1="126"
       style="fill:none"
       y2="235" />
    <line
       id="line8574"
       y1="233"
       x2="226"
       x1="226"
       style="fill:none"
       y2="235" />
    <line
       id="line8576"
       y1="233"
       x2="326"
       x1="326"
       style="fill:none"
       y2="235" />
  </g>
  <g
     id="g8582"
     style="font-family:SansSerif;color-interpolation:linearRGB;fill:#262626;stroke:#262626;color-rendering:optimizeQuality;image-rendering:optimizeQuality;text-rendering:geometricPrecision"
     transform="translate(126,381.7333)">
    <path
       inkscape:connector-curvature="0"
       id="path8580"
       d="M -3,8.7656 Q -3,7.2344 -2.6875,6.3047 -2.375,5.375 -1.7578,4.875 q 0.6172,-0.5 1.5547,-0.5 0.6875,0 1.2109,0.2812 0.5234,0.2813 0.8672,0.8047 0.3438,0.5235 0.5312,1.2735 0.1876,0.75 0.1876,2.0312 0,1.5156 -0.3047,2.4375 -0.3047,0.9219 -0.9219,1.4297 -0.6172,0.5078 -1.5703,0.5078 -1.2344,0 -1.9531,-0.8906 Q -3,11.1875 -3,8.7656 Z m 1.0781,0 q 0,2.1094 0.5,2.8125 0.5,0.7031 1.2188,0.7031 0.7343,0 1.2265,-0.7031 0.4922,-0.7031 0.4922,-2.8125 0,-2.125 -0.4922,-2.8203 Q 0.5312,5.25 -0.2188,5.25 q -0.7187,0 -1.1562,0.6094 -0.5469,0.7812 -0.5469,2.9062 z"
       style="stroke:none" />
  </g>
  <g
     id="g8586"
     style="font-family:SansSerif;color-interpolation:linearRGB;fill:#262626;stroke:#262626;color-rendering:optimizeQuality;image-rendering:optimizeQuality;text-rendering:geometricPrecision"
     transform="translate(226.1924,381.7333)">
    <path
       inkscape:connector-curvature="0"
       id="path8584"
       d="m -13,10.75 1.1094,-0.0938 q 0.125,0.8126 0.5703,1.2188 0.4453,0.4062 1.0859,0.4062 0.75,0 1.2813,-0.5781 0.5312,-0.5781 0.5312,-1.5156 0,-0.9063 -0.5078,-1.4297 -0.5078,-0.5234 -1.3359,-0.5234 -0.5,0 -0.9141,0.2344 -0.4141,0.2343 -0.6484,0.5937 l -0.9844,-0.125 0.8281,-4.4063 h 4.2813 v 1 h -3.4375 l -0.4532,2.3126 q 0.7657,-0.5469 1.6094,-0.5469 1.125,0 1.8985,0.7812 0.7734,0.7813 0.7734,2.0157 0,1.1562 -0.6719,2.0156 -0.8281,1.0312 -2.25,1.0312 -1.1718,0 -1.914,-0.6562 Q -12.8906,11.8281 -13,10.75 Z m 6.6738,-1.9844 q 0,-1.5312 0.3125,-2.4609 0.3125,-0.9297 0.9297,-1.4297 0.6172,-0.5 1.5547,-0.5 0.6875,0 1.2109,0.2812 0.5235,0.2813 0.8672,0.8047 0.3438,0.5235 0.5313,1.2735 0.1875,0.75 0.1875,2.0312 0,1.5156 -0.3047,2.4375 -0.3047,0.9219 -0.9219,1.4297 -0.6172,0.5078 -1.5703,0.5078 -1.2344,0 -1.9531,-0.8906 -0.8438,-1.0625 -0.8438,-3.4844 z m 1.0782,0 q 0,2.1094 0.5,2.8125 0.5,0.7031 1.2187,0.7031 0.7344,0 1.2266,-0.7031 0.4922,-0.7031 0.4922,-2.8125 0,-2.125 -0.4922,-2.8203 Q -2.7949,5.25 -3.5449,5.25 -4.2637,5.25 -4.7012,5.8594 -5.248,6.6406 -5.248,8.7656 Z m 5.5957,0 q 0,-1.5312 0.3125,-2.4609 0.3125,-0.9297 0.9296,-1.4297 0.6172,-0.5 1.5547,-0.5 0.6875,0 1.211,0.2812 0.5234,0.2813 0.8672,0.8047 0.3437,0.5235 0.5312,1.2735 0.1875,0.75 0.1875,2.0312 0,1.5156 -0.3047,2.4375 Q 5.332,12.125 4.7148,12.6328 4.0977,13.1406 3.1445,13.1406 1.9102,13.1406 1.1914,12.25 0.3477,11.1875 0.3477,8.7656 Z m 1.0781,0 q 0,2.1094 0.5,2.8125 0.5,0.7031 1.2187,0.7031 0.7344,0 1.2266,-0.7031 0.4922,-0.7031 0.4922,-2.8125 0,-2.125 -0.4922,-2.8203 Q 3.8789,5.25 3.1289,5.25 2.4102,5.25 1.9727,5.8594 1.4258,6.6406 1.4258,8.7656 Z m 5.5957,0 q 0,-1.5312 0.3125,-2.4609 0.3125,-0.9297 0.9297,-1.4297 0.6172,-0.5 1.5547,-0.5 0.6875,0 1.2109,0.2812 0.5234,0.2813 0.8672,0.8047 0.3437,0.5235 0.5312,1.2735 0.1875,0.75 0.1875,2.0312 0,1.5156 -0.3047,2.4375 -0.3046,0.9219 -0.9218,1.4297 -0.6172,0.5078 -1.5703,0.5078 -1.2344,0 -1.9532,-0.8906 Q 7.0215,11.1875 7.0215,8.7656 Z m 1.0781,0 q 0,2.1094 0.5,2.8125 0.5,0.7031 1.2188,0.7031 0.7343,0 1.2265,-0.7031 0.4922,-0.7031 0.4922,-2.8125 0,-2.125 -0.4922,-2.8203 Q 10.5527,5.25 9.8027,5.25 9.084,5.25 8.6465,5.8594 8.0996,6.6406 8.0996,8.7656 Z"
       style="stroke:none" />
  </g>
  <g
     id="g8590"
     style="font-family:SansSerif;color-interpolation:linearRGB;fill:#262626;stroke:#262626;color-rendering:optimizeQuality;image-rendering:optimizeQuality;text-rendering:geometricPrecision"
     transform="translate(325.9492,381.7333)">
    <path
       inkscape:connector-curvature="0"
       id="path8588"
       d="m -12.5312,13 h -1.0469 V 6.2812 q -0.3907,0.3594 -1.0078,0.7266 -0.6172,0.3672 -1.1016,0.5391 V 6.5312 q 0.875,-0.4218 1.5391,-1.0078 0.664,-0.5859 0.9453,-1.1484 h 0.6719 z m 2.705,-4.2344 q 0,-1.5312 0.3125,-2.4609 0.3125,-0.9297 0.9297,-1.4297 0.6172,-0.5 1.5547,-0.5 0.6875,0 1.2109,0.2812 0.5235,0.2813 0.8672,0.8047 0.3438,0.5235 0.5313,1.2735 0.1875,0.75 0.1875,2.0312 0,1.5156 -0.3047,2.4375 -0.3047,0.9219 -0.9219,1.4297 -0.6172,0.5078 -1.5703,0.5078 -1.2344,0 -1.9531,-0.8906 -0.8438,-1.0625 -0.8438,-3.4844 z m 1.0782,0 q 0,2.1094 0.5,2.8125 0.5,0.7031 1.2187,0.7031 0.7344,0 1.2266,-0.7031 0.4922,-0.7031 0.4922,-2.8125 0,-2.125 -0.4922,-2.8203 Q -6.2949,5.25 -7.0449,5.25 -7.7637,5.25 -8.2012,5.8594 -8.748,6.6406 -8.748,8.7656 Z m 5.5957,0 q 0,-1.5312 0.3125,-2.4609 0.3125,-0.9297 0.9296,-1.4297 0.6172,-0.5 1.5547,-0.5 0.6875,0 1.211,0.2812 0.5234,0.2813 0.8672,0.8047 0.3437,0.5235 0.5312,1.2735 0.1875,0.75 0.1875,2.0312 0,1.5156 -0.3047,2.4375 -0.3047,0.9219 -0.9219,1.4297 -0.6171,0.5078 -1.5703,0.5078 -1.2343,0 -1.9531,-0.8906 -0.8437,-1.0625 -0.8437,-3.4844 z m 1.0781,0 q 0,2.1094 0.5,2.8125 0.5,0.7031 1.2187,0.7031 0.7344,0 1.2266,-0.7031 0.4922,-0.7031 0.4922,-2.8125 0,-2.125 -0.4922,-2.8203 Q 0.3789,5.25 -0.3711,5.25 q -0.7187,0 -1.1562,0.6094 -0.5469,0.7812 -0.5469,2.9062 z m 5.5957,0 q 0,-1.5312 0.3125,-2.4609 0.3125,-0.9297 0.9297,-1.4297 0.6172,-0.5 1.5547,-0.5 0.6875,0 1.2109,0.2812 0.5234,0.2813 0.8672,0.8047 0.3437,0.5235 0.5312,1.2735 0.1875,0.75 0.1875,2.0312 0,1.5156 -0.3047,2.4375 Q 8.5059,12.125 7.8887,12.6328 7.2715,13.1406 6.3184,13.1406 5.084,13.1406 4.3652,12.25 3.5215,11.1875 3.5215,8.7656 Z m 1.0781,0 q 0,2.1094 0.5,2.8125 0.5,0.7031 1.2188,0.7031 0.7343,0 1.2265,-0.7031 0.4922,-0.7031 0.4922,-2.8125 0,-2.125 -0.4922,-2.8203 Q 7.0527,5.25 6.3027,5.25 5.584,5.25 5.1465,5.8594 4.5996,6.6406 4.5996,8.7656 Z m 5.5957,0 q 0,-1.5312 0.3125,-2.4609 0.3125,-0.9297 0.9297,-1.4297 0.6172,-0.5 1.5547,-0.5 0.6875,0 1.2109,0.2812 0.5235,0.2813 0.8672,0.8047 0.3438,0.5235 0.5313,1.2735 0.1875,0.75 0.1875,2.0312 0,1.5156 -0.3047,2.4375 -0.3047,0.9219 -0.9219,1.4297 -0.6172,0.5078 -1.5703,0.5078 -1.2344,0 -1.9531,-0.8906 -0.8438,-1.0625 -0.8438,-3.4844 z m 1.0781,0 q 0,2.1094 0.5,2.8125 0.5,0.7031 1.2188,0.7031 0.7344,0 1.2266,-0.7031 0.4921,-0.7031 0.4921,-2.8125 0,-2.125 -0.4921,-2.8203 Q 13.7266,5.25 12.9766,5.25 q -0.7188,0 -1.1563,0.6094 -0.5469,0.7812 -0.5469,2.9062 z"
       style="stroke:none" />
  </g>
  <g
     id="g8616"
     style="color-interpolation:linearRGB;fill:#262626;stroke:#262626;stroke-width:0.66670001;stroke-linejoin:round;color-rendering:optimizeQuality;image-rendering:optimizeQuality;text-rendering:geometricPrecision">
    <line
       id="line8592"
       y1="378"
       x2="126"
       x1="126"
       style="fill:none"
       y2="233" />
    <line
       id="line8594"
       y1="378"
       x2="326"
       x1="326"
       style="fill:none"
       y2="233" />
    <line
       id="line8596"
       y1="378"
       x2="128"
       x1="126"
       style="fill:none"
       y2="378" />
    <line
       id="line8598"
       y1="345.04541"
       x2="128"
       x1="126"
       style="fill:none"
       y2="345.04541" />
    <line
       id="line8600"
       y1="312.09091"
       x2="128"
       x1="126"
       style="fill:none"
       y2="312.09091" />
    <line
       id="line8602"
       y1="279.13641"
       x2="128"
       x1="126"
       style="fill:none"
       y2="279.13641" />
    <line
       id="line8604"
       y1="246.18179"
       x2="128"
       x1="126"
       style="fill:none"
       y2="246.18179" />
    <line
       id="line8606"
       y1="378"
       x2="324"
       x1="326"
       style="fill:none"
       y2="378" />
    <line
       id="line8608"
       y1="345.04541"
       x2="324"
       x1="326"
       style="fill:none"
       y2="345.04541" />
    <line
       id="line8610"
       y1="312.09091"
       x2="324"
       x1="326"
       style="fill:none"
       y2="312.09091" />
    <line
       id="line8612"
       y1="279.13641"
       x2="324"
       x1="326"
       style="fill:none"
       y2="279.13641" />
    <line
       id="line8614"
       y1="246.18179"
       x2="324"
       x1="326"
       style="fill:none"
       y2="246.18179" />
  </g>
  <g
     id="g8620"
     style="font-family:SansSerif;color-interpolation:linearRGB;fill:#262626;stroke:#262626;color-rendering:optimizeQuality;image-rendering:optimizeQuality;text-rendering:geometricPrecision"
     transform="translate(122.2667,378)">
    <path
       inkscape:connector-curvature="0"
       id="path8618"
       d="M -30.625,2.4219 V 1.3594 h 3.25 v 1.0625 z m 9.668,1.5625 V 5 h -5.6875 q 0,-0.375 0.125,-0.7344 0.2187,-0.5781 0.6953,-1.1406 0.4765,-0.5625 1.3828,-1.2969 1.4062,-1.1562 1.8984,-1.8281 0.4922,-0.6719 0.4922,-1.2656 0,-0.625 -0.4531,-1.0547 -0.4531,-0.4297 -1.1719,-0.4297 -0.7656,0 -1.2187,0.4531 -0.4532,0.4531 -0.4688,1.2657 l -1.0781,-0.1094 q 0.1094,-1.2188 0.8359,-1.8516 0.7266,-0.6328 1.961,-0.6328 1.2343,0 1.9531,0.6875 0.7187,0.6875 0.7187,1.7031 0,0.5156 -0.2109,1.0078 -0.2109,0.4922 -0.7031,1.0469 -0.4922,0.5547 -1.6172,1.5078 -0.9531,0.7969 -1.2266,1.086 -0.2734,0.289 -0.4453,0.5703 z m 1.1269,-3.2188 q 0,-1.5312 0.3125,-2.4609 0.3125,-0.9297 0.9297,-1.4297 0.6172,-0.5 1.5547,-0.5 0.6875,0 1.2109,0.2812 0.5235,0.2813 0.8672,0.8047 0.3438,0.5235 0.5313,1.2735 0.1875,0.75 0.1875,2.0312 0,1.5156 -0.3047,2.4375 -0.3047,0.9219 -0.9219,1.4297 -0.6172,0.5078 -1.5703,0.5078 -1.2344,0 -1.9531,-0.8906 -0.8438,-1.0625 -0.8438,-3.4844 z m 1.0781,0 q 0,2.1094 0.5,2.8125 0.5,0.7031 1.2188,0.7031 0.7344,0 1.2266,-0.7031 0.4921,-0.7031 0.4921,-2.8125 0,-2.125 -0.4921,-2.8203 -0.4922,-0.6953 -1.2422,-0.6953 -0.7188,0 -1.1563,0.6094 -0.5469,0.7812 -0.5469,2.9062 z m 5.5958,0 q 0,-1.5312 0.3124,-2.4609 0.3126,-0.9297 0.9297,-1.4297 0.6172,-0.5 1.5547,-0.5 0.6875,0 1.211,0.2812 0.5234,0.2813 0.8672,0.8047 0.3437,0.5235 0.5312,1.2735 0.1875,0.75 0.1875,2.0312 0,1.5156 -0.3047,2.4375 -0.3047,0.9219 -0.9219,1.4297 -0.6171,0.5078 -1.5703,0.5078 -1.2344,0 -1.9531,-0.8906 -0.8437,-1.0625 -0.8437,-3.4844 z m 1.0781,0 q 0,2.1094 0.5,2.8125 0.5,0.7031 1.2187,0.7031 0.7344,0 1.2266,-0.7031 0.4922,-0.7031 0.4922,-2.8125 0,-2.125 -0.4922,-2.8203 Q -9.625,-2.75 -10.375,-2.75 q -0.7188,0 -1.1562,0.6094 -0.5469,0.7812 -0.5469,2.9062 z m 5.5957,0 q 0,-1.5312 0.3125,-2.4609 0.3125,-0.9297 0.9297,-1.4297 0.6172,-0.5 1.5547,-0.5 0.6875,0 1.2109,0.2812 0.5234,0.2813 0.8672,0.8047 0.3437,0.5235 0.5312,1.2735 0.1875,0.75 0.1875,2.0312 0,1.5156 -0.3047,2.4375 -0.3046,0.9219 -0.9218,1.4297 -0.6172,0.5078 -1.5703,0.5078 -1.2344,0 -1.9532,-0.8906 -0.8437,-1.0625 -0.8437,-3.4844 z m 1.0781,0 q 0,2.1094 0.5,2.8125 0.5,0.7031 1.2188,0.7031 0.7343,0 1.2265,-0.7031 0.4922,-0.7031 0.4922,-2.8125 0,-2.125 -0.4922,-2.8203 -0.4922,-0.6953 -1.2422,-0.6953 -0.7187,0 -1.1562,0.6094 -0.5469,0.7812 -0.5469,2.9062 z"
       style="stroke:none" />
  </g>
  <g
     id="g8624"
     style="font-family:SansSerif;color-interpolation:linearRGB;fill:#262626;stroke:#262626;color-rendering:optimizeQuality;image-rendering:optimizeQuality;text-rendering:geometricPrecision"
     transform="translate(122.2667,345.0454)">
    <path
       inkscape:connector-curvature="0"
       id="path8622"
       d="M -30.625,2.4219 V 1.3594 h 3.25 V 2.4219 Z M -22.5352,5 h -1.0468 v -6.7188 q -0.3907,0.3594 -1.0078,0.7266 -0.6172,0.3672 -1.1016,0.5391 v -1.0157 q 0.875,-0.4218 1.5391,-1.0078 0.664,-0.5859 0.9453,-1.1484 h 0.6718 z m 2.7051,-2.25 1.1094,-0.0938 q 0.125,0.8126 0.5703,1.2188 0.4453,0.4062 1.0859,0.4062 0.75,0 1.2813,-0.5781 0.5312,-0.5781 0.5312,-1.5156 0,-0.9063 -0.5078,-1.4297 -0.5078,-0.5234 -1.3359,-0.5234 -0.5,0 -0.9141,0.2344 -0.414,0.2343 -0.6484,0.5937 l -0.9844,-0.125 0.8281,-4.4063 h 4.2813 v 1 h -3.4375 l -0.4531,2.3126 q 0.7656,-0.5469 1.6093,-0.5469 1.125,0 1.8985,0.7812 0.7734,0.7813 0.7734,2.0157 0,1.1562 -0.6719,2.0156 -0.8281,1.0312 -2.25,1.0312 -1.1718,0 -1.914,-0.6562 -0.7422,-0.6563 -0.8516,-1.7344 z m 6.6739,-1.9844 q 0,-1.5312 0.3124,-2.4609 0.3126,-0.9297 0.9297,-1.4297 0.6172,-0.5 1.5547,-0.5 0.6875,0 1.211,0.2812 0.5234,0.2813 0.8672,0.8047 0.3437,0.5235 0.5312,1.2735 0.1875,0.75 0.1875,2.0312 0,1.5156 -0.3047,2.4375 -0.3047,0.9219 -0.9219,1.4297 -0.6171,0.5078 -1.5703,0.5078 -1.2344,0 -1.9531,-0.8906 -0.8437,-1.0625 -0.8437,-3.4844 z m 1.0781,0 q 0,2.1094 0.5,2.8125 0.5,0.7031 1.2187,0.7031 0.7344,0 1.2266,-0.7031 0.4922,-0.7031 0.4922,-2.8125 0,-2.125 -0.4922,-2.8203 Q -9.625,-2.75 -10.375,-2.75 q -0.7188,0 -1.1562,0.6094 -0.5469,0.7812 -0.5469,2.9062 z m 5.5957,0 q 0,-1.5312 0.3125,-2.4609 0.3125,-0.9297 0.9297,-1.4297 0.6172,-0.5 1.5547,-0.5 0.6875,0 1.2109,0.2812 0.5234,0.2813 0.8672,0.8047 0.3437,0.5235 0.5312,1.2735 0.1875,0.75 0.1875,2.0312 0,1.5156 -0.3047,2.4375 -0.3046,0.9219 -0.9218,1.4297 -0.6172,0.5078 -1.5703,0.5078 -1.2344,0 -1.9532,-0.8906 -0.8437,-1.0625 -0.8437,-3.4844 z m 1.0781,0 q 0,2.1094 0.5,2.8125 0.5,0.7031 1.2188,0.7031 0.7343,0 1.2265,-0.7031 0.4922,-0.7031 0.4922,-2.8125 0,-2.125 -0.4922,-2.8203 -0.4922,-0.6953 -1.2422,-0.6953 -0.7187,0 -1.1562,0.6094 -0.5469,0.7812 -0.5469,2.9062 z"
       style="stroke:none" />
  </g>
  <g
     id="g8628"
     style="font-family:SansSerif;color-interpolation:linearRGB;fill:#262626;stroke:#262626;color-rendering:optimizeQuality;image-rendering:optimizeQuality;text-rendering:geometricPrecision"
     transform="translate(122.2667,312.0909)">
    <path
       inkscape:connector-curvature="0"
       id="path8626"
       d="M -30.625,2.4219 V 1.3594 h 3.25 V 2.4219 Z M -22.5352,5 h -1.0468 v -6.7188 q -0.3907,0.3594 -1.0078,0.7266 -0.6172,0.3672 -1.1016,0.5391 v -1.0157 q 0.875,-0.4218 1.5391,-1.0078 0.664,-0.5859 0.9453,-1.1484 h 0.6718 z m 2.7051,-4.2344 q 0,-1.5312 0.3125,-2.4609 0.3125,-0.9297 0.9297,-1.4297 0.6172,-0.5 1.5547,-0.5 0.6875,0 1.2109,0.2812 0.5235,0.2813 0.8672,0.8047 0.3438,0.5235 0.5313,1.2735 0.1875,0.75 0.1875,2.0312 0,1.5156 -0.3047,2.4375 -0.3047,0.9219 -0.9219,1.4297 -0.6172,0.5078 -1.5703,0.5078 -1.2344,0 -1.9531,-0.8906 -0.8438,-1.0625 -0.8438,-3.4844 z m 1.0781,0 q 0,2.1094 0.5,2.8125 0.5,0.7031 1.2188,0.7031 0.7344,0 1.2266,-0.7031 0.4921,-0.7031 0.4921,-2.8125 0,-2.125 -0.4921,-2.8203 -0.4922,-0.6953 -1.2422,-0.6953 -0.7188,0 -1.1563,0.6094 -0.5469,0.7812 -0.5469,2.9062 z m 5.5958,0 q 0,-1.5312 0.3124,-2.4609 0.3126,-0.9297 0.9297,-1.4297 0.6172,-0.5 1.5547,-0.5 0.6875,0 1.211,0.2812 0.5234,0.2813 0.8672,0.8047 0.3437,0.5235 0.5312,1.2735 0.1875,0.75 0.1875,2.0312 0,1.5156 -0.3047,2.4375 -0.3047,0.9219 -0.9219,1.4297 -0.6171,0.5078 -1.5703,0.5078 -1.2344,0 -1.9531,-0.8906 -0.8437,-1.0625 -0.8437,-3.4844 z m 1.0781,0 q 0,2.1094 0.5,2.8125 0.5,0.7031 1.2187,0.7031 0.7344,0 1.2266,-0.7031 0.4922,-0.7031 0.4922,-2.8125 0,-2.125 -0.4922,-2.8203 Q -9.625,-2.75 -10.375,-2.75 q -0.7188,0 -1.1562,0.6094 -0.5469,0.7812 -0.5469,2.9062 z m 5.5957,0 q 0,-1.5312 0.3125,-2.4609 0.3125,-0.9297 0.9297,-1.4297 0.6172,-0.5 1.5547,-0.5 0.6875,0 1.2109,0.2812 0.5234,0.2813 0.8672,0.8047 0.3437,0.5235 0.5312,1.2735 0.1875,0.75 0.1875,2.0312 0,1.5156 -0.3047,2.4375 -0.3046,0.9219 -0.9218,1.4297 -0.6172,0.5078 -1.5703,0.5078 -1.2344,0 -1.9532,-0.8906 -0.8437,-1.0625 -0.8437,-3.4844 z m 1.0781,0 q 0,2.1094 0.5,2.8125 0.5,0.7031 1.2188,0.7031 0.7343,0 1.2265,-0.7031 0.4922,-0.7031 0.4922,-2.8125 0,-2.125 -0.4922,-2.8203 -0.4922,-0.6953 -1.2422,-0.6953 -0.7187,0 -1.1562,0.6094 -0.5469,0.7812 -0.5469,2.9062 z"
       style="stroke:none" />
  </g>
  <g
     id="g8632"
     style="font-family:SansSerif;color-interpolation:linearRGB;fill:#262626;stroke:#262626;color-rendering:optimizeQuality;image-rendering:optimizeQuality;text-rendering:geometricPrecision"
     transform="translate(122.2667,279.1364)">
    <path
       inkscape:connector-curvature="0"
       id="path8630"
       d="M -24.625,2.4219 V 1.3594 h 3.25 v 1.0625 z m 4.1211,0.3281 1.1094,-0.0938 q 0.125,0.8126 0.5703,1.2188 0.4453,0.4062 1.0859,0.4062 0.75,0 1.2813,-0.5781 0.5312,-0.5781 0.5312,-1.5156 0,-0.9063 -0.5078,-1.4297 -0.5078,-0.5234 -1.3359,-0.5234 -0.5,0 -0.9141,0.2344 -0.4141,0.2343 -0.6484,0.5937 l -0.9844,-0.125 0.8281,-4.4063 h 4.2813 v 1 h -3.4375 l -0.4532,2.3126 q 0.7657,-0.5469 1.6094,-0.5469 1.125,0 1.8985,0.7812 0.7734,0.7813 0.7734,2.0157 0,1.1562 -0.6719,2.0156 -0.8281,1.0312 -2.25,1.0312 -1.1719,0 -1.914,-0.6562 -0.7422,-0.6563 -0.8516,-1.7344 z m 6.6738,-1.9844 q 0,-1.5312 0.3125,-2.4609 0.3125,-0.9297 0.9297,-1.4297 0.6172,-0.5 1.5547,-0.5 0.6875,0 1.2109,0.2812 0.5235,0.2813 0.8672,0.8047 0.3438,0.5235 0.5313,1.2735 0.1875,0.75 0.1875,2.0312 0,1.5156 -0.3047,2.4375 -0.3047,0.9219 -0.9219,1.4297 -0.6172,0.5078 -1.5703,0.5078 -1.2344,0 -1.9531,-0.8906 -0.8438,-1.0625 -0.8438,-3.4844 z m 1.0781,0 q 0,2.1094 0.5,2.8125 0.5,0.7031 1.2188,0.7031 0.7344,0 1.2266,-0.7031 0.4921,-0.7031 0.4921,-2.8125 0,-2.125 -0.4921,-2.8203 -0.4922,-0.6953 -1.2422,-0.6953 -0.7188,0 -1.1563,0.6094 -0.5469,0.7812 -0.5469,2.9062 z m 5.5958,0 q 0,-1.5312 0.3124,-2.4609 0.3126,-0.9297 0.9297,-1.4297 0.6172,-0.5 1.5547,-0.5 0.6875,0 1.211,0.2812 0.5234,0.2813 0.8672,0.8047 0.3437,0.5235 0.5312,1.2735 0.1875,0.75 0.1875,2.0312 0,1.5156 -0.3047,2.4375 -0.3047,0.9219 -0.9219,1.4297 -0.6171,0.5078 -1.5703,0.5078 -1.2344,0 -1.9531,-0.8906 -0.8437,-1.0625 -0.8437,-3.4844 z m 1.0781,0 q 0,2.1094 0.5,2.8125 0.5,0.7031 1.2187,0.7031 0.7344,0 1.2266,-0.7031 0.4922,-0.7031 0.4922,-2.8125 0,-2.125 -0.4922,-2.8203 Q -3.625,-2.75 -4.375,-2.75 q -0.7188,0 -1.1562,0.6094 -0.5469,0.7812 -0.5469,2.9062 z"
       style="stroke:none" />
  </g>
  <g
     id="g8636"
     style="font-family:SansSerif;color-interpolation:linearRGB;fill:#262626;stroke:#262626;color-rendering:optimizeQuality;image-rendering:optimizeQuality;text-rendering:geometricPrecision"
     transform="translate(122.2667,246.1818)">
    <path
       inkscape:connector-curvature="0"
       id="path8634"
       d="m -6.5,0.7656 q 0,-1.5312 0.3125,-2.4609 0.3125,-0.9297 0.9297,-1.4297 0.6172,-0.5 1.5547,-0.5 0.6875,0 1.2109,0.2812 0.5234,0.2813 0.8672,0.8047 0.3438,0.5235 0.5312,1.2735 0.1876,0.75 0.1876,2.0312 0,1.5156 -0.3047,2.4375 Q -1.5156,4.125 -2.1328,4.6328 -2.75,5.1406 -3.7031,5.1406 -4.9375,5.1406 -5.6562,4.25 -6.5,3.1875 -6.5,0.7656 Z m 1.0781,0 q 0,2.1094 0.5,2.8125 0.5,0.7031 1.2188,0.7031 0.7343,0 1.2265,-0.7031 0.4922,-0.7031 0.4922,-2.8125 0,-2.125 -0.4922,-2.8203 -0.4922,-0.6953 -1.2422,-0.6953 -0.7187,0 -1.1562,0.6094 -0.5469,0.7812 -0.5469,2.9062 z"
       style="stroke:none" />
  </g>
  <g
     id="g8640"
     style="color-interpolation:linearRGB;stroke-width:2.66669989;stroke-linecap:butt;stroke-linejoin:bevel;stroke-miterlimit:1;stroke-dasharray:8, 8;color-rendering:optimizeQuality;image-rendering:optimizeQuality;text-rendering:geometricPrecision">
    <path
       inkscape:connector-curvature="0"
       id="path8638"
       style="fill:none;fill-rule:evenodd"
       d="m 126,282.8031 2,21.0069 2,12.4796 2,9.8969 2,1.1924 2,3.6262 2,4.7888 h 2 2 2 l 2,2.0566 h 2 2 2 2 l 2,6.1154 h 2 2 2 2 2 2 2 2 2 2 l 2,1.3756 h 2 2 2 2 2 2 2 2 2 2 2 2 2 2 2 2 2 2 2 2 2 2 2 2 2 2 2 2 2 2 2 2 2 2 2 2 2 2 2 2 2 2 2 2 2 2 2 2 2 2 2 2 2 2 2 2 2 2 2 2 2 2 2 2 2 2 2 2 2 2 2 2 2 2" />
  </g>
  <g
     id="g8644"
     style="color-interpolation:linearRGB;stroke-width:0.66670001;stroke-linecap:butt;stroke-linejoin:round;color-rendering:optimizeQuality;image-rendering:optimizeQuality;text-rendering:geometricPrecision">
    <path
       inkscape:connector-curvature="0"
       id="path8642"
       style="fill:none;fill-rule:evenodd"
       d="m 128,303.81 2,12.4796 2,9.8969 2,1.1924 2,3.6262 2,4.7888 2,-3.4732 2,1.0511 2,1.1603 2,3.3184 2,-4.0564 2,3.5049 2,-13.4832 2,2.7212 2,17.4289 2,-17.4377 2,0.1795 2,-9.4077 2,14.0373 2,-11.8461 2,-6.7473 2,4.2709 2,4.8758 2,9.3555 2,-29.0485 2,43.1439 2,-49.5967 2,14.8657 2,-0.8231 2,12.2359 2,-11.5739 2,-2.1945 2,-2.6811 2,-6.6303 2,10.3092 2,6.4681 2,2.0931 2,15.2586 2,-37.1222 2,30.9373 2,-6.1989 2,-10.5963 2,1.5975 2,4.7951 2,-33.1863 2,23.6127 2,-3.8704 2,11.9092 2,-8.2291 2,-8.8568 2,0.906 2,0.7369 2,-1.862 2,19.4632 2,-3.4807 2,18.2989 2,-3.5727 2,-25.9818 2,14.6225 2,-8.7509 2,13.6485 2,-1.1438 2,-19.8126 2,24.725 2,-9.8749 2,8.4728 2,-9.0629 2,-1.7633 2,20.2937 2,-8.2062 2,-10.6255 2,-5.8553 2,13.3053 2,-0.271 2,-14.603 2,-3.677 2,11.3556 2,0.2531 2,-11.0501 2,30.3468 2,-28.612 2,-12.5075 2,21.8942 2,-18.1134 2,13.4676 2,13.7445 2,-30.2733 2,7.1899 2,9.4026 2,14.7585 2,-37.4533 2,15.5452 2,-6.3998 2,-5.1987 2,15.7888 2,-15.5009 2,15.7856 2,3.0356 2,-14.6786 2,-6.2582" />
  </g>
  <g
     id="g8648"
     style="color-interpolation:sRGB;fill:#ffffff;stroke:#ffffff;color-rendering:optimizeSpeed;image-rendering:optimizeSpeed;shape-rendering:crispEdges;text-rendering:optimizeSpeed" />
  <g
     id="g8666"
     style="color-interpolation:linearRGB;fill:#262626;stroke:#262626;stroke-width:0.66670001;stroke-linejoin:round;color-rendering:optimizeQuality;image-rendering:optimizeQuality;text-rendering:geometricPrecision"
     transform="translate(-48.95219)">
    <line
       id="line8650"
       y1="378"
       x2="597"
       x1="397"
       style="fill:none"
       y2="378" />
    <line
       id="line8652"
       y1="233"
       x2="597"
       x1="397"
       style="fill:none"
       y2="233" />
    <line
       id="line8654"
       y1="378"
       x2="397"
       x1="397"
       style="fill:none"
       y2="376" />
    <line
       id="line8656"
       y1="378"
       x2="497"
       x1="497"
       style="fill:none"
       y2="376" />
    <line
       id="line8658"
       y1="378"
       x2="597"
       x1="597"
       style="fill:none"
       y2="376" />
    <line
       id="line8660"
       y1="233"
       x2="397"
       x1="397"
       style="fill:none"
       y2="235" />
    <line
       id="line8662"
       y1="233"
       x2="497"
       x1="497"
       style="fill:none"
       y2="235" />
    <line
       id="line8664"
       y1="233"
       x2="597"
       x1="597"
       style="fill:none"
       y2="235" />
  </g>
  <g
     id="g8670"
     style="font-family:SansSerif;color-interpolation:linearRGB;fill:#262626;stroke:#262626;color-rendering:optimizeQuality;image-rendering:optimizeQuality;text-rendering:geometricPrecision"
     transform="translate(348.04781,381.7333)">
    <path
       inkscape:connector-curvature="0"
       id="path8668"
       d="M -3,8.7656 Q -3,7.2344 -2.6875,6.3047 -2.375,5.375 -1.7578,4.875 q 0.6172,-0.5 1.5547,-0.5 0.6875,0 1.2109,0.2812 0.5234,0.2813 0.8672,0.8047 0.3438,0.5235 0.5312,1.2735 0.1876,0.75 0.1876,2.0312 0,1.5156 -0.3047,2.4375 -0.3047,0.9219 -0.9219,1.4297 -0.6172,0.5078 -1.5703,0.5078 -1.2344,0 -1.9531,-0.8906 Q -3,11.1875 -3,8.7656 Z m 1.0781,0 q 0,2.1094 0.5,2.8125 0.5,0.7031 1.2188,0.7031 0.7343,0 1.2265,-0.7031 0.4922,-0.7031 0.4922,-2.8125 0,-2.125 -0.4922,-2.8203 Q 0.5312,5.25 -0.2188,5.25 q -0.7187,0 -1.1562,0.6094 -0.5469,0.7812 -0.5469,2.9062 z"
       style="stroke:none" />
  </g>
  <g
     id="g8674"
     style="font-family:SansSerif;color-interpolation:linearRGB;fill:#262626;stroke:#262626;color-rendering:optimizeQuality;image-rendering:optimizeQuality;text-rendering:geometricPrecision"
     transform="translate(448.04781,381.7333)">
    <path
       inkscape:connector-curvature="0"
       id="path8672"
       d="m -13,10.75 1.1094,-0.0938 q 0.125,0.8126 0.5703,1.2188 0.4453,0.4062 1.0859,0.4062 0.75,0 1.2813,-0.5781 0.5312,-0.5781 0.5312,-1.5156 0,-0.9063 -0.5078,-1.4297 -0.5078,-0.5234 -1.3359,-0.5234 -0.5,0 -0.9141,0.2344 -0.4141,0.2343 -0.6484,0.5937 l -0.9844,-0.125 0.8281,-4.4063 h 4.2813 v 1 h -3.4375 l -0.4532,2.3126 q 0.7657,-0.5469 1.6094,-0.5469 1.125,0 1.8985,0.7812 0.7734,0.7813 0.7734,2.0157 0,1.1562 -0.6719,2.0156 -0.8281,1.0312 -2.25,1.0312 -1.1718,0 -1.914,-0.6562 Q -12.8906,11.8281 -13,10.75 Z m 6.6738,-1.9844 q 0,-1.5312 0.3125,-2.4609 0.3125,-0.9297 0.9297,-1.4297 0.6172,-0.5 1.5547,-0.5 0.6875,0 1.2109,0.2812 0.5235,0.2813 0.8672,0.8047 0.3438,0.5235 0.5313,1.2735 0.1875,0.75 0.1875,2.0312 0,1.5156 -0.3047,2.4375 -0.3047,0.9219 -0.9219,1.4297 -0.6172,0.5078 -1.5703,0.5078 -1.2344,0 -1.9531,-0.8906 -0.8438,-1.0625 -0.8438,-3.4844 z m 1.0782,0 q 0,2.1094 0.5,2.8125 0.5,0.7031 1.2187,0.7031 0.7344,0 1.2266,-0.7031 0.4922,-0.7031 0.4922,-2.8125 0,-2.125 -0.4922,-2.8203 Q -2.7949,5.25 -3.5449,5.25 -4.2637,5.25 -4.7012,5.8594 -5.248,6.6406 -5.248,8.7656 Z m 5.5957,0 q 0,-1.5312 0.3125,-2.4609 0.3125,-0.9297 0.9296,-1.4297 0.6172,-0.5 1.5547,-0.5 0.6875,0 1.211,0.2812 0.5234,0.2813 0.8672,0.8047 0.3437,0.5235 0.5312,1.2735 0.1875,0.75 0.1875,2.0312 0,1.5156 -0.3047,2.4375 Q 5.332,12.125 4.7148,12.6328 4.0977,13.1406 3.1445,13.1406 1.9102,13.1406 1.1914,12.25 0.3477,11.1875 0.3477,8.7656 Z m 1.0781,0 q 0,2.1094 0.5,2.8125 0.5,0.7031 1.2187,0.7031 0.7344,0 1.2266,-0.7031 0.4922,-0.7031 0.4922,-2.8125 0,-2.125 -0.4922,-2.8203 Q 3.8789,5.25 3.1289,5.25 2.4102,5.25 1.9727,5.8594 1.4258,6.6406 1.4258,8.7656 Z m 5.5957,0 q 0,-1.5312 0.3125,-2.4609 0.3125,-0.9297 0.9297,-1.4297 0.6172,-0.5 1.5547,-0.5 0.6875,0 1.2109,0.2812 0.5234,0.2813 0.8672,0.8047 0.3437,0.5235 0.5312,1.2735 0.1875,0.75 0.1875,2.0312 0,1.5156 -0.3047,2.4375 -0.3046,0.9219 -0.9218,1.4297 -0.6172,0.5078 -1.5703,0.5078 -1.2344,0 -1.9532,-0.8906 Q 7.0215,11.1875 7.0215,8.7656 Z m 1.0781,0 q 0,2.1094 0.5,2.8125 0.5,0.7031 1.2188,0.7031 0.7343,0 1.2265,-0.7031 0.4922,-0.7031 0.4922,-2.8125 0,-2.125 -0.4922,-2.8203 Q 10.5527,5.25 9.8027,5.25 9.084,5.25 8.6465,5.8594 8.0996,6.6406 8.0996,8.7656 Z"
       style="stroke:none" />
  </g>
  <g
     id="g8678"
     style="font-family:SansSerif;color-interpolation:linearRGB;fill:#262626;stroke:#262626;color-rendering:optimizeQuality;image-rendering:optimizeQuality;text-rendering:geometricPrecision"
     transform="translate(548.04781,381.7333)">
    <path
       inkscape:connector-curvature="0"
       id="path8676"
       d="m -12.5312,13 h -1.0469 V 6.2812 q -0.3907,0.3594 -1.0078,0.7266 -0.6172,0.3672 -1.1016,0.5391 V 6.5312 q 0.875,-0.4218 1.5391,-1.0078 0.664,-0.5859 0.9453,-1.1484 h 0.6719 z m 2.705,-4.2344 q 0,-1.5312 0.3125,-2.4609 0.3125,-0.9297 0.9297,-1.4297 0.6172,-0.5 1.5547,-0.5 0.6875,0 1.2109,0.2812 0.5235,0.2813 0.8672,0.8047 0.3438,0.5235 0.5313,1.2735 0.1875,0.75 0.1875,2.0312 0,1.5156 -0.3047,2.4375 -0.3047,0.9219 -0.9219,1.4297 -0.6172,0.5078 -1.5703,0.5078 -1.2344,0 -1.9531,-0.8906 -0.8438,-1.0625 -0.8438,-3.4844 z m 1.0782,0 q 0,2.1094 0.5,2.8125 0.5,0.7031 1.2187,0.7031 0.7344,0 1.2266,-0.7031 0.4922,-0.7031 0.4922,-2.8125 0,-2.125 -0.4922,-2.8203 Q -6.2949,5.25 -7.0449,5.25 -7.7637,5.25 -8.2012,5.8594 -8.748,6.6406 -8.748,8.7656 Z m 5.5957,0 q 0,-1.5312 0.3125,-2.4609 0.3125,-0.9297 0.9296,-1.4297 0.6172,-0.5 1.5547,-0.5 0.6875,0 1.211,0.2812 0.5234,0.2813 0.8672,0.8047 0.3437,0.5235 0.5312,1.2735 0.1875,0.75 0.1875,2.0312 0,1.5156 -0.3047,2.4375 -0.3047,0.9219 -0.9219,1.4297 -0.6171,0.5078 -1.5703,0.5078 -1.2343,0 -1.9531,-0.8906 -0.8437,-1.0625 -0.8437,-3.4844 z m 1.0781,0 q 0,2.1094 0.5,2.8125 0.5,0.7031 1.2187,0.7031 0.7344,0 1.2266,-0.7031 0.4922,-0.7031 0.4922,-2.8125 0,-2.125 -0.4922,-2.8203 Q 0.3789,5.25 -0.3711,5.25 q -0.7187,0 -1.1562,0.6094 -0.5469,0.7812 -0.5469,2.9062 z m 5.5957,0 q 0,-1.5312 0.3125,-2.4609 0.3125,-0.9297 0.9297,-1.4297 0.6172,-0.5 1.5547,-0.5 0.6875,0 1.2109,0.2812 0.5234,0.2813 0.8672,0.8047 0.3437,0.5235 0.5312,1.2735 0.1875,0.75 0.1875,2.0312 0,1.5156 -0.3047,2.4375 Q 8.5059,12.125 7.8887,12.6328 7.2715,13.1406 6.3184,13.1406 5.084,13.1406 4.3652,12.25 3.5215,11.1875 3.5215,8.7656 Z m 1.0781,0 q 0,2.1094 0.5,2.8125 0.5,0.7031 1.2188,0.7031 0.7343,0 1.2265,-0.7031 0.4922,-0.7031 0.4922,-2.8125 0,-2.125 -0.4922,-2.8203 Q 7.0527,5.25 6.3027,5.25 5.584,5.25 5.1465,5.8594 4.5996,6.6406 4.5996,8.7656 Z m 5.5957,0 q 0,-1.5312 0.3125,-2.4609 0.3125,-0.9297 0.9297,-1.4297 0.6172,-0.5 1.5547,-0.5 0.6875,0 1.2109,0.2812 0.5235,0.2813 0.8672,0.8047 0.3438,0.5235 0.5313,1.2735 0.1875,0.75 0.1875,2.0312 0,1.5156 -0.3047,2.4375 -0.3047,0.9219 -0.9219,1.4297 -0.6172,0.5078 -1.5703,0.5078 -1.2344,0 -1.9531,-0.8906 -0.8438,-1.0625 -0.8438,-3.4844 z m 1.0781,0 q 0,2.1094 0.5,2.8125 0.5,0.7031 1.2188,0.7031 0.7344,0 1.2266,-0.7031 0.4921,-0.7031 0.4921,-2.8125 0,-2.125 -0.4921,-2.8203 Q 13.7266,5.25 12.9766,5.25 q -0.7188,0 -1.1563,0.6094 -0.5469,0.7812 -0.5469,2.9062 z"
       style="stroke:none" />
  </g>
  <g
     id="g8704"
     style="color-interpolation:linearRGB;fill:#262626;stroke:#262626;stroke-width:0.66670001;stroke-linejoin:round;color-rendering:optimizeQuality;image-rendering:optimizeQuality;text-rendering:geometricPrecision"
     transform="translate(-48.95219)">
    <line
       id="line8680"
       y1="378"
       x2="397"
       x1="397"
       style="fill:none"
       y2="233" />
    <line
       id="line8682"
       y1="378"
       x2="597"
       x1="597"
       style="fill:none"
       y2="233" />
    <line
       id="line8684"
       y1="378"
       x2="399"
       x1="397"
       style="fill:none"
       y2="378" />
    <line
       id="line8686"
       y1="345.04541"
       x2="399"
       x1="397"
       style="fill:none"
       y2="345.04541" />
    <line
       id="line8688"
       y1="312.09091"
       x2="399"
       x1="397"
       style="fill:none"
       y2="312.09091" />
    <line
       id="line8690"
       y1="279.13641"
       x2="399"
       x1="397"
       style="fill:none"
       y2="279.13641" />
    <line
       id="line8692"
       y1="246.18179"
       x2="399"
       x1="397"
       style="fill:none"
       y2="246.18179" />
    <line
       id="line8694"
       y1="378"
       x2="595"
       x1="597"
       style="fill:none"
       y2="378" />
    <line
       id="line8696"
       y1="345.04541"
       x2="595"
       x1="597"
       style="fill:none"
       y2="345.04541" />
    <line
       id="line8698"
       y1="312.09091"
       x2="595"
       x1="597"
       style="fill:none"
       y2="312.09091" />
    <line
       id="line8700"
       y1="279.13641"
       x2="595"
       x1="597"
       style="fill:none"
       y2="279.13641" />
    <line
       id="line8702"
       y1="246.18179"
       x2="595"
       x1="597"
       style="fill:none"
       y2="246.18179" />
  </g>
  <g
     id="g8708"
     style="font-family:SansSerif;color-interpolation:linearRGB;fill:#262626;stroke:#262626;color-rendering:optimizeQuality;image-rendering:optimizeQuality;text-rendering:geometricPrecision"
     transform="translate(393.2667,378)" />
  <g
     id="g8712"
     style="font-family:SansSerif;color-interpolation:linearRGB;fill:#262626;stroke:#262626;color-rendering:optimizeQuality;image-rendering:optimizeQuality;text-rendering:geometricPrecision"
     transform="translate(393.2667,345.0454)" />
  <g
     id="g8716"
     style="font-family:SansSerif;color-interpolation:linearRGB;fill:#262626;stroke:#262626;color-rendering:optimizeQuality;image-rendering:optimizeQuality;text-rendering:geometricPrecision"
     transform="translate(393.2667,312.0909)" />
  <g
     id="g8720"
     style="font-family:SansSerif;color-interpolation:linearRGB;fill:#262626;stroke:#262626;color-rendering:optimizeQuality;image-rendering:optimizeQuality;text-rendering:geometricPrecision"
     transform="translate(393.2667,279.1364)" />
  <g
     id="g8724"
     style="font-family:SansSerif;color-interpolation:linearRGB;fill:#262626;stroke:#262626;color-rendering:optimizeQuality;image-rendering:optimizeQuality;text-rendering:geometricPrecision"
     transform="translate(393.2667,246.1818)" />
  <g
     id="g8728"
     style="color-interpolation:linearRGB;stroke-width:2.66669989;stroke-linecap:butt;stroke-linejoin:bevel;stroke-miterlimit:1;stroke-dasharray:8, 8;color-rendering:optimizeQuality;image-rendering:optimizeQuality;text-rendering:geometricPrecision"
     transform="translate(-48.95219)">
    <path
       inkscape:connector-curvature="0"
       id="path8726"
       style="fill:none;fill-rule:evenodd"
       d="m 397,282.8031 2,45.3993 h 2 2 2 2 2 2 2 2 2 2 l 2,5.8493 h 2 2 2 l 2,5.3038 h 2 2 2 2 2 2 2 2 2 2 2 2 2 2 2 l 2,1.5671 h 2 2 2 2 2 2 2 2 2 2 2 2 2 2 2 2 2 2 2 2 2 2 2 2 2 2 2 2 2 2 2 2 2 2 2 2 2 2 2 2 2 2 2 2 2 2 2 2 2 2 2 2 2 2 2 2 2 2 2 2 2 2 2 2 2 2 2 2" />
  </g>
  <g
     id="g8732"
     style="color-interpolation:linearRGB;stroke-width:0.66670001;stroke-linecap:butt;stroke-linejoin:round;color-rendering:optimizeQuality;image-rendering:optimizeQuality;text-rendering:geometricPrecision"
     transform="translate(-48.95219)">
    <path
       inkscape:connector-curvature="0"
       id="path8730"
       style="fill:none;fill-rule:evenodd"
       d="m 399,328.2024 2,-8.2191 2,-5.969 2,6.0625 2,-8.7522 2,0.7445 2,-8.2459 2,9.4642 2,8.9548 2,-14.5012 2,9.6707 2,16.64 2,-18.0096 2,-3.2688 2,18.1325 2,8.4497 2,-24.0588 2,10.4003 2,-21.3763 2,-4.4972 2,-4.2554 2,29.7576 2,0.4612 2,-8.851 2,5.2475 2,-17.8212 2,22.4053 2,-4.1686 2,0.1628 2,7.5175 2,-16.7227 2,27.3661 2,-20.5688 2,0.4178 2,-9.5792 2,1.6354 2,10.3151 2,-8.945 2,-7.7929 2,22.4349 2,-42.7784 2,25.2325 2,-10.8014 2,18.2119 2,-2.2404 2,-24.0203 2,24.6635 2,-17.084 2,13.3458 2,-6.2147 2,3.3298 2,20.5188 2,-33.1299 2,21.0742 2,-28.1954 2,10.5191 2,7.4716 2,10.8951 2,-20.0191 2,2.8947 2,14.6489 2,-2.8086 2,-17.2248 2,5.1801 2,4.1089 2,7.1166 2,-4.7464 2,-4.804 2,-20.6176 2,29.927 2,-4.3308 2,-0.2686 2,16.2162 2,-39.2592 2,-1.0012 2,8.88 2,2.9484 2,3.0329 2,-15.5377 2,0.1258 2,29.9688 2,-6.3997 2,-19.8342 2,19.7554 2,-4.0469 2,-4.4473 2,3.3596 2,10.0069 2,16.7119 2,-22.0572 2,-13.5256 2,-11.0799 2,15.7603 2,3.4342 2,3.3901 2,2.7362 2,-3.9105 2,-0.8247 2,20.3676 2,-16.2082" />
  </g>
  <g
     id="g8736"
     style="color-interpolation:sRGB;fill:#ffffff;stroke:#ffffff;color-rendering:optimizeSpeed;image-rendering:optimizeSpeed;shape-rendering:crispEdges;text-rendering:optimizeSpeed" />
  <g
     id="g8754"
     style="color-interpolation:linearRGB;fill:#262626;stroke:#262626;stroke-width:0.66670001;stroke-linejoin:round;color-rendering:optimizeQuality;image-rendering:optimizeQuality;text-rendering:geometricPrecision"
     transform="translate(-97.95219)">
    <line
       id="line8738"
       y1="378"
       x2="868"
       x1="668"
       style="fill:none"
       y2="378" />
    <line
       id="line8740"
       y1="233"
       x2="868"
       x1="668"
       style="fill:none"
       y2="233" />
    <line
       id="line8742"
       y1="378"
       x2="668"
       x1="668"
       style="fill:none"
       y2="376" />
    <line
       id="line8744"
       y1="378"
       x2="768"
       x1="768"
       style="fill:none"
       y2="376" />
    <line
       id="line8746"
       y1="378"
       x2="868"
       x1="868"
       style="fill:none"
       y2="376" />
    <line
       id="line8748"
       y1="233"
       x2="668"
       x1="668"
       style="fill:none"
       y2="235" />
    <line
       id="line8750"
       y1="233"
       x2="768"
       x1="768"
       style="fill:none"
       y2="235" />
    <line
       id="line8752"
       y1="233"
       x2="868"
       x1="868"
       style="fill:none"
       y2="235" />
  </g>
  <g
     id="g8758"
     style="font-family:SansSerif;color-interpolation:linearRGB;fill:#262626;stroke:#262626;color-rendering:optimizeQuality;image-rendering:optimizeQuality;text-rendering:geometricPrecision"
     transform="translate(570.04781,381.7333)">
    <path
       inkscape:connector-curvature="0"
       id="path8756"
       d="M -3,8.7656 Q -3,7.2344 -2.6875,6.3047 -2.375,5.375 -1.7578,4.875 q 0.6172,-0.5 1.5547,-0.5 0.6875,0 1.2109,0.2812 0.5234,0.2813 0.8672,0.8047 0.3438,0.5235 0.5312,1.2735 0.1876,0.75 0.1876,2.0312 0,1.5156 -0.3047,2.4375 -0.3047,0.9219 -0.9219,1.4297 -0.6172,0.5078 -1.5703,0.5078 -1.2344,0 -1.9531,-0.8906 Q -3,11.1875 -3,8.7656 Z m 1.0781,0 q 0,2.1094 0.5,2.8125 0.5,0.7031 1.2188,0.7031 0.7343,0 1.2265,-0.7031 0.4922,-0.7031 0.4922,-2.8125 0,-2.125 -0.4922,-2.8203 Q 0.5312,5.25 -0.2188,5.25 q -0.7187,0 -1.1562,0.6094 -0.5469,0.7812 -0.5469,2.9062 z"
       style="stroke:none" />
  </g>
  <g
     id="g8762"
     style="font-family:SansSerif;color-interpolation:linearRGB;fill:#262626;stroke:#262626;color-rendering:optimizeQuality;image-rendering:optimizeQuality;text-rendering:geometricPrecision"
     transform="translate(670.04781,381.7333)">
    <path
       inkscape:connector-curvature="0"
       id="path8760"
       d="m -13,10.75 1.1094,-0.0938 q 0.125,0.8126 0.5703,1.2188 0.4453,0.4062 1.0859,0.4062 0.75,0 1.2813,-0.5781 0.5312,-0.5781 0.5312,-1.5156 0,-0.9063 -0.5078,-1.4297 -0.5078,-0.5234 -1.3359,-0.5234 -0.5,0 -0.9141,0.2344 -0.4141,0.2343 -0.6484,0.5937 l -0.9844,-0.125 0.8281,-4.4063 h 4.2813 v 1 h -3.4375 l -0.4532,2.3126 q 0.7657,-0.5469 1.6094,-0.5469 1.125,0 1.8985,0.7812 0.7734,0.7813 0.7734,2.0157 0,1.1562 -0.6719,2.0156 -0.8281,1.0312 -2.25,1.0312 -1.1718,0 -1.914,-0.6562 Q -12.8906,11.8281 -13,10.75 Z m 6.6738,-1.9844 q 0,-1.5312 0.3125,-2.4609 0.3125,-0.9297 0.9297,-1.4297 0.6172,-0.5 1.5547,-0.5 0.6875,0 1.2109,0.2812 0.5235,0.2813 0.8672,0.8047 0.3438,0.5235 0.5313,1.2735 0.1875,0.75 0.1875,2.0312 0,1.5156 -0.3047,2.4375 -0.3047,0.9219 -0.9219,1.4297 -0.6172,0.5078 -1.5703,0.5078 -1.2344,0 -1.9531,-0.8906 -0.8438,-1.0625 -0.8438,-3.4844 z m 1.0782,0 q 0,2.1094 0.5,2.8125 0.5,0.7031 1.2187,0.7031 0.7344,0 1.2266,-0.7031 0.4922,-0.7031 0.4922,-2.8125 0,-2.125 -0.4922,-2.8203 Q -2.7949,5.25 -3.5449,5.25 -4.2637,5.25 -4.7012,5.8594 -5.248,6.6406 -5.248,8.7656 Z m 5.5957,0 q 0,-1.5312 0.3125,-2.4609 0.3125,-0.9297 0.9296,-1.4297 0.6172,-0.5 1.5547,-0.5 0.6875,0 1.211,0.2812 0.5234,0.2813 0.8672,0.8047 0.3437,0.5235 0.5312,1.2735 0.1875,0.75 0.1875,2.0312 0,1.5156 -0.3047,2.4375 Q 5.332,12.125 4.7148,12.6328 4.0977,13.1406 3.1445,13.1406 1.9102,13.1406 1.1914,12.25 0.3477,11.1875 0.3477,8.7656 Z m 1.0781,0 q 0,2.1094 0.5,2.8125 0.5,0.7031 1.2187,0.7031 0.7344,0 1.2266,-0.7031 0.4922,-0.7031 0.4922,-2.8125 0,-2.125 -0.4922,-2.8203 Q 3.8789,5.25 3.1289,5.25 2.4102,5.25 1.9727,5.8594 1.4258,6.6406 1.4258,8.7656 Z m 5.5957,0 q 0,-1.5312 0.3125,-2.4609 0.3125,-0.9297 0.9297,-1.4297 0.6172,-0.5 1.5547,-0.5 0.6875,0 1.2109,0.2812 0.5234,0.2813 0.8672,0.8047 0.3437,0.5235 0.5312,1.2735 0.1875,0.75 0.1875,2.0312 0,1.5156 -0.3047,2.4375 -0.3046,0.9219 -0.9218,1.4297 -0.6172,0.5078 -1.5703,0.5078 -1.2344,0 -1.9532,-0.8906 Q 7.0215,11.1875 7.0215,8.7656 Z m 1.0781,0 q 0,2.1094 0.5,2.8125 0.5,0.7031 1.2188,0.7031 0.7343,0 1.2265,-0.7031 0.4922,-0.7031 0.4922,-2.8125 0,-2.125 -0.4922,-2.8203 Q 10.5527,5.25 9.8027,5.25 9.084,5.25 8.6465,5.8594 8.0996,6.6406 8.0996,8.7656 Z"
       style="stroke:none" />
  </g>
  <g
     id="g8766"
     style="font-family:SansSerif;color-interpolation:linearRGB;fill:#262626;stroke:#262626;color-rendering:optimizeQuality;image-rendering:optimizeQuality;text-rendering:geometricPrecision"
     transform="translate(770.04781,381.7333)">
    <path
       inkscape:connector-curvature="0"
       id="path8764"
       d="m -12.5312,13 h -1.0469 V 6.2812 q -0.3907,0.3594 -1.0078,0.7266 -0.6172,0.3672 -1.1016,0.5391 V 6.5312 q 0.875,-0.4218 1.5391,-1.0078 0.664,-0.5859 0.9453,-1.1484 h 0.6719 z m 2.705,-4.2344 q 0,-1.5312 0.3125,-2.4609 0.3125,-0.9297 0.9297,-1.4297 0.6172,-0.5 1.5547,-0.5 0.6875,0 1.2109,0.2812 0.5235,0.2813 0.8672,0.8047 0.3438,0.5235 0.5313,1.2735 0.1875,0.75 0.1875,2.0312 0,1.5156 -0.3047,2.4375 -0.3047,0.9219 -0.9219,1.4297 -0.6172,0.5078 -1.5703,0.5078 -1.2344,0 -1.9531,-0.8906 -0.8438,-1.0625 -0.8438,-3.4844 z m 1.0782,0 q 0,2.1094 0.5,2.8125 0.5,0.7031 1.2187,0.7031 0.7344,0 1.2266,-0.7031 0.4922,-0.7031 0.4922,-2.8125 0,-2.125 -0.4922,-2.8203 Q -6.2949,5.25 -7.0449,5.25 -7.7637,5.25 -8.2012,5.8594 -8.748,6.6406 -8.748,8.7656 Z m 5.5957,0 q 0,-1.5312 0.3125,-2.4609 0.3125,-0.9297 0.9296,-1.4297 0.6172,-0.5 1.5547,-0.5 0.6875,0 1.211,0.2812 0.5234,0.2813 0.8672,0.8047 0.3437,0.5235 0.5312,1.2735 0.1875,0.75 0.1875,2.0312 0,1.5156 -0.3047,2.4375 -0.3047,0.9219 -0.9219,1.4297 -0.6171,0.5078 -1.5703,0.5078 -1.2343,0 -1.9531,-0.8906 -0.8437,-1.0625 -0.8437,-3.4844 z m 1.0781,0 q 0,2.1094 0.5,2.8125 0.5,0.7031 1.2187,0.7031 0.7344,0 1.2266,-0.7031 0.4922,-0.7031 0.4922,-2.8125 0,-2.125 -0.4922,-2.8203 Q 0.3789,5.25 -0.3711,5.25 q -0.7187,0 -1.1562,0.6094 -0.5469,0.7812 -0.5469,2.9062 z m 5.5957,0 q 0,-1.5312 0.3125,-2.4609 0.3125,-0.9297 0.9297,-1.4297 0.6172,-0.5 1.5547,-0.5 0.6875,0 1.2109,0.2812 0.5234,0.2813 0.8672,0.8047 0.3437,0.5235 0.5312,1.2735 0.1875,0.75 0.1875,2.0312 0,1.5156 -0.3047,2.4375 Q 8.5059,12.125 7.8887,12.6328 7.2715,13.1406 6.3184,13.1406 5.084,13.1406 4.3652,12.25 3.5215,11.1875 3.5215,8.7656 Z m 1.0781,0 q 0,2.1094 0.5,2.8125 0.5,0.7031 1.2188,0.7031 0.7343,0 1.2265,-0.7031 0.4922,-0.7031 0.4922,-2.8125 0,-2.125 -0.4922,-2.8203 Q 7.0527,5.25 6.3027,5.25 5.584,5.25 5.1465,5.8594 4.5996,6.6406 4.5996,8.7656 Z m 5.5957,0 q 0,-1.5312 0.3125,-2.4609 0.3125,-0.9297 0.9297,-1.4297 0.6172,-0.5 1.5547,-0.5 0.6875,0 1.2109,0.2812 0.5235,0.2813 0.8672,0.8047 0.3438,0.5235 0.5313,1.2735 0.1875,0.75 0.1875,2.0312 0,1.5156 -0.3047,2.4375 -0.3047,0.9219 -0.9219,1.4297 -0.6172,0.5078 -1.5703,0.5078 -1.2344,0 -1.9531,-0.8906 -0.8438,-1.0625 -0.8438,-3.4844 z m 1.0781,0 q 0,2.1094 0.5,2.8125 0.5,0.7031 1.2188,0.7031 0.7344,0 1.2266,-0.7031 0.4921,-0.7031 0.4921,-2.8125 0,-2.125 -0.4921,-2.8203 Q 13.7266,5.25 12.9766,5.25 q -0.7188,0 -1.1563,0.6094 -0.5469,0.7812 -0.5469,2.9062 z"
       style="stroke:none" />
  </g>
  <g
     id="g8792"
     style="color-interpolation:linearRGB;fill:#262626;stroke:#262626;stroke-width:0.66670001;stroke-linejoin:round;color-rendering:optimizeQuality;image-rendering:optimizeQuality;text-rendering:geometricPrecision"
     transform="translate(-97.95219)">
    <line
       id="line8768"
       y1="378"
       x2="668"
       x1="668"
       style="fill:none"
       y2="233" />
    <line
       id="line8770"
       y1="378"
       x2="868"
       x1="868"
       style="fill:none"
       y2="233" />
    <line
       id="line8772"
       y1="378"
       x2="670"
       x1="668"
       style="fill:none"
       y2="378" />
    <line
       id="line8774"
       y1="345.04541"
       x2="670"
       x1="668"
       style="fill:none"
       y2="345.04541" />
    <line
       id="line8776"
       y1="312.09091"
       x2="670"
       x1="668"
       style="fill:none"
       y2="312.09091" />
    <line
       id="line8778"
       y1="279.13641"
       x2="670"
       x1="668"
       style="fill:none"
       y2="279.13641" />
    <line
       id="line8780"
       y1="246.18179"
       x2="670"
       x1="668"
       style="fill:none"
       y2="246.18179" />
    <line
       id="line8782"
       y1="378"
       x2="866"
       x1="868"
       style="fill:none"
       y2="378" />
    <line
       id="line8784"
       y1="345.04541"
       x2="866"
       x1="868"
       style="fill:none"
       y2="345.04541" />
    <line
       id="line8786"
       y1="312.09091"
       x2="866"
       x1="868"
       style="fill:none"
       y2="312.09091" />
    <line
       id="line8788"
       y1="279.13641"
       x2="866"
       x1="868"
       style="fill:none"
       y2="279.13641" />
    <line
       id="line8790"
       y1="246.18179"
       x2="866"
       x1="868"
       style="fill:none"
       y2="246.18179" />
  </g>
  <g
     id="g8796"
     style="font-family:SansSerif;color-interpolation:linearRGB;fill:#262626;stroke:#262626;color-rendering:optimizeQuality;image-rendering:optimizeQuality;text-rendering:geometricPrecision"
     transform="translate(664.2667,378)" />
  <g
     id="g8800"
     style="font-family:SansSerif;color-interpolation:linearRGB;fill:#262626;stroke:#262626;color-rendering:optimizeQuality;image-rendering:optimizeQuality;text-rendering:geometricPrecision"
     transform="translate(664.2667,345.0454)" />
  <g
     id="g8804"
     style="font-family:SansSerif;color-interpolation:linearRGB;fill:#262626;stroke:#262626;color-rendering:optimizeQuality;image-rendering:optimizeQuality;text-rendering:geometricPrecision"
     transform="translate(664.2667,312.0909)" />
  <g
     id="g8808"
     style="font-family:SansSerif;color-interpolation:linearRGB;fill:#262626;stroke:#262626;color-rendering:optimizeQuality;image-rendering:optimizeQuality;text-rendering:geometricPrecision"
     transform="translate(664.2667,279.1364)" />
  <g
     id="g8812"
     style="font-family:SansSerif;color-interpolation:linearRGB;fill:#262626;stroke:#262626;color-rendering:optimizeQuality;image-rendering:optimizeQuality;text-rendering:geometricPrecision"
     transform="translate(664.2667,246.1818)" />
  <g
     id="g8816"
     style="color-interpolation:linearRGB;stroke-width:2.66669989;stroke-linecap:butt;stroke-linejoin:bevel;stroke-miterlimit:1;stroke-dasharray:8, 8;color-rendering:optimizeQuality;image-rendering:optimizeQuality;text-rendering:geometricPrecision"
     transform="translate(-97.95219)">
    <path
       inkscape:connector-curvature="0"
       id="path8814"
       style="fill:none;fill-rule:evenodd"
       d="m 668,282.8031 2,46.1765 2,0.5226 h 2 2 2 2 2 2 2 2 2 2 2 2 2 2 2 2 2 2 2 2 2 2 2 2 2 2 2 2 2 2 2 2 2 2 2 2 2 2 2 l 2,2.7385 h 2 2 2 2 2 2 2 2 2 2 2 2 2 2 2 2 2 2 2 2 2 2 2 2 2 2 2 2 2 2 2 2 2 2 2 2 2 2 2 2 2 2 2 2 2 2 2 2 2 2 2 2 2 2 2 2 2 2" />
  </g>
  <g
     id="g8820"
     style="color-interpolation:linearRGB;stroke-width:0.66670001;stroke-linecap:butt;stroke-linejoin:round;color-rendering:optimizeQuality;image-rendering:optimizeQuality;text-rendering:geometricPrecision"
     transform="translate(-97.95219)">
    <path
       inkscape:connector-curvature="0"
       id="path8818"
       style="fill:none;fill-rule:evenodd"
       d="m 670,328.9796 2,0.5226 2,-12.468 2,-13.598 2,-11.3488 2,7.0767 2,18.7388 2,-11.5979 2,-16.337 2,-9.6121 2,39.5708 2,-13.1368 2,-0.6362 2,-1.8493 2,-1.2406 2,17.6334 2,-12.1678 2,-7.9255 2,27.229 2,-18.9516 2,-9.6429 2,1.4074 2,-0.0829 2,5.2279 2,2.6849 2,-16.3996 2,27.5722 2,-14.3936 2,-2.0005 2,12.7749 2,-10.2708 2,-13.8602 2,14.9908 2,-21.5542 2,26.7768 2,-15.3317 2,16.0669 2,-8.0583 2,-21.8634 2,29.3094 2,-19.0993 2,39.1056 2,-7.8426 2,-2.3239 2,-29.7701 2,9.335 2,25.467 2,-15.2296 2,-16.8009 2,13.1172 2,-4.3943 2,3.1092 2,-12.4989 2,37.517 2,-21.3387 2,-14.1743 2,-7.7157 2,14.0756 2,-15.5567 2,21.5449 2,1.2717 2,5.5024 2,-40.5314 2,16.6032 2,10.1737 2,-11.837 2,15.8631 2,0.9309 2,-33.0767 2,19.6254 2,15.0362 2,-37.6853 2,46.3647 2,-11.9822 2,6.2212 2,3.4187 2,-12.5517 2,-33.4242 2,34.7564 2,-24.9304 2,13.0362 2,19.3762 2,-18.5801 2,13.4318 2,-28.0448 2,20.954 2,29.2804 2,-24.8097 2,6.5024 2,-6.4321 2,17.0432 2,-12.4974 2,-8.1741 2,11.1571 2,-32.18 2,32.0845 2,-23.9946 2,5.5803 2,3.3164 2,1.627" />
  </g>
  <text
     xml:space="preserve"
     style="font-style:normal;font-variant:normal;font-weight:normal;font-stretch:normal;font-size:106.73361969px;line-height:1.25;font-family:'Latin Modern Roman';-inkscape-font-specification:'Latin Modern Roman, Normal';font-variant-ligatures:normal;font-variant-caps:normal;font-variant-numeric:normal;font-feature-settings:normal;text-align:start;letter-spacing:0px;word-spacing:0px;writing-mode:lr-tb;text-anchor:start;fill:#000000;fill-opacity:1;stroke:none;stroke-width:0.88944685"
     x="406.55521"
     y="412.18463"
     id="text9629"><tspan
       sodipodi:role="line"
       id="tspan9627"
       x="406.55521"
       y="412.18463"
       style="font-style:normal;font-variant:normal;font-weight:normal;font-stretch:normal;font-size:14.23114967px;font-family:SansSerif;-inkscape-font-specification:'SansSerif, Normal';font-variant-ligatures:normal;font-variant-caps:normal;font-variant-numeric:normal;font-feature-settings:normal;text-align:start;writing-mode:lr-tb;text-anchor:start;stroke-width:0.88944685">Evaluations</tspan></text>
  <text
     xml:space="preserve"
     style="font-style:normal;font-variant:normal;font-weight:normal;font-stretch:normal;font-size:106.73361969px;line-height:1.25;font-family:'Latin Modern Roman';-inkscape-font-specification:'Latin Modern Roman, Normal';font-variant-ligatures:normal;font-variant-caps:normal;font-variant-numeric:normal;font-feature-settings:normal;text-align:start;letter-spacing:0px;word-spacing:0px;writing-mode:lr-tb;text-anchor:start;color-interpolation:auto;fill:#000000;fill-opacity:1;stroke:none;stroke-width:0.88944685;stroke-linecap:square;stroke-linejoin:miter;stroke-miterlimit:10;stroke-dasharray:none;stroke-dashoffset:0;stroke-opacity:1;color-rendering:auto;image-rendering:auto;shape-rendering:auto;text-rendering:auto"
     x="-241.24553"
     y="83.493225"
     id="text9629-3"
     transform="rotate(-90)"><tspan
       sodipodi:role="line"
       id="tspan9627-4"
       x="-241.24553"
       y="83.493225"
       style="font-style:normal;font-variant:normal;font-weight:normal;font-stretch:normal;font-size:14.23114967px;font-family:SansSerif;-inkscape-font-specification:'SansSerif, Normal';font-variant-ligatures:normal;font-variant-caps:normal;font-variant-numeric:normal;font-feature-settings:normal;text-align:start;writing-mode:lr-tb;text-anchor:start;stroke-width:0.88944685">f(x)</tspan></text>
  <text
     xml:space="preserve"
     style="font-style:normal;font-variant:normal;font-weight:normal;font-stretch:normal;font-size:106.73361969px;line-height:1.25;font-family:'Latin Modern Roman';-inkscape-font-specification:'Latin Modern Roman, Normal';font-variant-ligatures:normal;font-variant-caps:normal;font-variant-numeric:normal;font-feature-settings:normal;text-align:start;letter-spacing:0px;word-spacing:0px;writing-mode:lr-tb;text-anchor:start;color-interpolation:auto;fill:#000000;fill-opacity:1;stroke:none;stroke-width:0.88944685;stroke-linecap:square;stroke-linejoin:miter;stroke-miterlimit:10;stroke-dasharray:none;stroke-dashoffset:0;stroke-opacity:1;color-rendering:auto;image-rendering:auto;shape-rendering:auto;text-rendering:auto"
     x="194.2085"
     y="92.708672"
     id="text9629-35"><tspan
       sodipodi:role="line"
       id="tspan9657"
       x="194.2085"
       y="92.708672"
       style="font-style:normal;font-variant:normal;font-weight:bold;font-stretch:normal;font-size:16px;font-family:SansSerif;-inkscape-font-specification:'SansSerif, Bold';font-variant-ligatures:normal;font-variant-caps:normal;font-variant-numeric:normal;font-feature-settings:normal;text-align:start;writing-mode:lr-tb;text-anchor:start"><tspan
   style="font-size:64.99999762%;baseline-shift:sub"
   id="tspan13427">0</tspan> = 1</tspan></text>
  <text
     xml:space="preserve"
     style="font-style:normal;font-variant:normal;font-weight:normal;font-stretch:normal;font-size:106.73361969px;line-height:1.25;font-family:'Latin Modern Roman';-inkscape-font-specification:'Latin Modern Roman, Normal';font-variant-ligatures:normal;font-variant-caps:normal;font-variant-numeric:normal;font-feature-settings:normal;text-align:start;letter-spacing:0px;word-spacing:0px;writing-mode:lr-tb;text-anchor:start;color-interpolation:auto;fill:#000000;fill-opacity:1;stroke:none;stroke-width:0.88944685;stroke-linecap:square;stroke-linejoin:miter;stroke-miterlimit:10;stroke-dasharray:none;stroke-dashoffset:0;stroke-opacity:1;color-rendering:auto;image-rendering:auto;shape-rendering:auto;text-rendering:auto"
     x="414.91855"
     y="92.693047"
     id="text9629-35-7"><tspan
       sodipodi:role="line"
       id="tspan9657-0"
       x="414.91855"
       y="92.693047"
       style="font-style:normal;font-variant:normal;font-weight:bold;font-stretch:normal;font-size:16px;font-family:SansSerif;-inkscape-font-specification:'SansSerif, Bold';font-variant-ligatures:normal;font-variant-caps:normal;font-variant-numeric:normal;font-feature-settings:normal;text-align:start;writing-mode:lr-tb;text-anchor:start"><tspan
   style="font-size:64.99999762%;baseline-shift:sub"
   id="tspan13429">0</tspan> = 5</tspan></text>
  <text
     xml:space="preserve"
     style="font-style:normal;font-variant:normal;font-weight:normal;font-stretch:normal;font-size:106.73361969px;line-height:1.25;font-family:'Latin Modern Roman';-inkscape-font-specification:'Latin Modern Roman, Normal';font-variant-ligatures:normal;font-variant-caps:normal;font-variant-numeric:normal;font-feature-settings:normal;text-align:start;letter-spacing:0px;word-spacing:0px;writing-mode:lr-tb;text-anchor:start;color-interpolation:auto;fill:#000000;fill-opacity:1;stroke:none;stroke-width:0.88944685;stroke-linecap:square;stroke-linejoin:miter;stroke-miterlimit:10;stroke-dasharray:none;stroke-dashoffset:0;stroke-opacity:1;color-rendering:auto;image-rendering:auto;shape-rendering:auto;text-rendering:auto"
     x="631.86151"
     y="92.810234"
     id="text9629-35-2"><tspan
       sodipodi:role="line"
       id="tspan9657-7"
       x="631.86151"
       y="92.810234"
       style="font-style:normal;font-variant:normal;font-weight:bold;font-stretch:normal;font-size:16px;font-family:SansSerif;-inkscape-font-specification:'SansSerif, Bold';font-variant-ligatures:normal;font-variant-caps:normal;font-variant-numeric:normal;font-feature-settings:normal;text-align:start;writing-mode:lr-tb;text-anchor:start"><tspan
   style="font-size:64.99999762%;baseline-shift:sub"
   id="tspan13431">0</tspan> = 10</tspan></text>
  <text
     xml:space="preserve"
     style="font-style:normal;font-variant:normal;font-weight:normal;font-stretch:normal;font-size:106.73361969px;line-height:1.25;font-family:'Latin Modern Roman';-inkscape-font-specification:'Latin Modern Roman, Normal';font-variant-ligatures:normal;font-variant-caps:normal;font-variant-numeric:normal;font-feature-settings:normal;text-align:start;letter-spacing:0px;word-spacing:0px;writing-mode:lr-tb;text-anchor:start;color-interpolation:auto;fill:#000000;fill-opacity:1;stroke:none;stroke-width:0.88944685;stroke-linecap:square;stroke-linejoin:miter;stroke-miterlimit:10;stroke-dasharray:none;stroke-dashoffset:0;stroke-opacity:1;color-rendering:auto;image-rendering:auto;shape-rendering:auto;text-rendering:auto"
     x="194.3678"
     y="250.42067"
     id="text9629-35-8"><tspan
       sodipodi:role="line"
       id="tspan9657-08"
       x="194.3678"
       y="250.42067"
       style="font-style:normal;font-variant:normal;font-weight:bold;font-stretch:normal;font-size:16px;font-family:SansSerif;-inkscape-font-specification:'SansSerif, Bold';font-variant-ligatures:normal;font-variant-caps:normal;font-variant-numeric:normal;font-feature-settings:normal;text-align:start;writing-mode:lr-tb;text-anchor:start"><tspan
   style="font-size:64.99999762%;baseline-shift:sub"
   id="tspan13437">0</tspan> = 20</tspan></text>
  <text
     xml:space="preserve"
     style="font-style:normal;font-variant:normal;font-weight:normal;font-stretch:normal;font-size:106.73361969px;line-height:1.25;font-family:'Latin Modern Roman';-inkscape-font-specification:'Latin Modern Roman, Normal';font-variant-ligatures:normal;font-variant-caps:normal;font-variant-numeric:normal;font-feature-settings:normal;text-align:start;letter-spacing:0px;word-spacing:0px;writing-mode:lr-tb;text-anchor:start;color-interpolation:auto;fill:#000000;fill-opacity:1;stroke:none;stroke-width:0.88944685;stroke-linecap:square;stroke-linejoin:miter;stroke-miterlimit:10;stroke-dasharray:none;stroke-dashoffset:0;stroke-opacity:1;color-rendering:auto;image-rendering:auto;shape-rendering:auto;text-rendering:auto"
     x="415.32004"
     y="250.42067"
     id="text9629-35-9"><tspan
       sodipodi:role="line"
       id="tspan9657-9"
       x="415.32004"
       y="250.42067"
       style="font-style:normal;font-variant:normal;font-weight:bold;font-stretch:normal;font-size:16px;font-family:SansSerif;-inkscape-font-specification:'SansSerif, Bold';font-variant-ligatures:normal;font-variant-caps:normal;font-variant-numeric:normal;font-feature-settings:normal;text-align:start;writing-mode:lr-tb;text-anchor:start"><tspan
   style="font-size:64.99999762%;baseline-shift:sub"
   id="tspan13435">0</tspan> = 40</tspan></text>
  <text
     xml:space="preserve"
     style="font-style:normal;font-variant:normal;font-weight:normal;font-stretch:normal;font-size:106.73361969px;line-height:1.25;font-family:'Latin Modern Roman';-inkscape-font-specification:'Latin Modern Roman, Normal';font-variant-ligatures:normal;font-variant-caps:normal;font-variant-numeric:normal;font-feature-settings:normal;text-align:start;letter-spacing:0px;word-spacing:0px;writing-mode:lr-tb;text-anchor:start;color-interpolation:auto;fill:#000000;fill-opacity:1;stroke:none;stroke-width:0.88944685;stroke-linecap:square;stroke-linejoin:miter;stroke-miterlimit:10;stroke-dasharray:none;stroke-dashoffset:0;stroke-opacity:1;color-rendering:auto;image-rendering:auto;shape-rendering:auto;text-rendering:auto"
     x="638.0365"
     y="250.43629"
     id="text9629-35-23"><tspan
       sodipodi:role="line"
       id="tspan9657-3"
       x="638.0365"
       y="250.43629"
       style="font-style:normal;font-variant:normal;font-weight:bold;font-stretch:normal;font-size:16px;font-family:SansSerif;-inkscape-font-specification:'SansSerif, Bold';font-variant-ligatures:normal;font-variant-caps:normal;font-variant-numeric:normal;font-feature-settings:normal;text-align:start;writing-mode:lr-tb;text-anchor:start"><tspan
   style="font-size:64.99999762%;baseline-shift:sub"
   id="tspan13433">0</tspan> = 80</tspan></text>
</svg>
